<?xml version="1.0" encoding="UTF-8" standalone="no"?>
<!-- Created with Inkscape (http://www.inkscape.org/) -->

<svg
   version="1.1"
   id="svg2"
   width="865.55164"
   height="550.66675"
   viewBox="0 0 865.55164 550.66675"
   sodipodi:docname="Features module w transparency.svg"
   xmlns:inkscape="http://www.inkscape.org/namespaces/inkscape"
   xmlns:sodipodi="http://sodipodi.sourceforge.net/DTD/sodipodi-0.dtd"
   xmlns="http://www.w3.org/2000/svg"
   xmlns:svg="http://www.w3.org/2000/svg">
  <defs
     id="defs6" />
  <sodipodi:namedview
     id="namedview4"
     pagecolor="#ffffff"
     bordercolor="#000000"
     borderopacity="0.25"
     inkscape:showpageshadow="2"
     inkscape:pageopacity="0.0"
     inkscape:pagecheckerboard="0"
     inkscape:deskcolor="#d1d1d1"
     showgrid="false" />
  <g
     inkscape:groupmode="layer"
     inkscape:label="Image"
     id="g8"
     transform="translate(-51.08147,2238.7842)">
    <g
       id="g1063"
       transform="translate(3.1226404,-2448.1174)">
      <path
         style="fill:#e28b48;stroke-width:1.33333"
         d="m 710.22224,759.11113 c -0.48889,-0.48888 -0.88889,-13.98889 -0.88889,-30.00001 v -29.1111 h 28.66667 28.66667 v 30 30 h -27.77778 c -15.27779,0 -28.17779,-0.4 -28.66667,-0.88889 z M 608.00001,724.00002 v -17.33334 h 16.66667 16.66667 v 17.33334 17.33333 h -16.66667 -16.66667 z m -286.66667,0 c 0,-2.07408 0.88889,-2.66667 4,-2.66667 3.11111,0 4,0.59259 4,2.66667 0,2.07408 -0.88889,2.66666 -4,2.66666 -3.11111,0 -4,-0.59258 -4,-2.66666 z m 19.19068,0.55761 c 0.44513,-1.15997 0.80932,-2.35997 0.80932,-2.66667 0,-0.30668 1.8,-0.55761 4,-0.55761 3.11111,0 4,0.59259 4,2.66667 0,2.1738 -0.88889,2.66666 -4.80932,2.66666 -3.83768,0 -4.64581,-0.42609 -4,-2.10905 z m 20.80932,-0.55761 c 0,-2.15874 0.8889,-2.66667 4.66667,-2.66667 3.77777,0 4.66667,0.50793 4.66667,2.66667 0,2.15873 -0.8889,2.66666 -4.66667,2.66666 -3.77777,0 -4.66667,-0.50793 -4.66667,-2.66666 z m 21.33334,0 c 0,-2.15874 0.88889,-2.66667 4.66666,-2.66667 3.77778,0 4.66667,0.50793 4.66667,2.66667 0,2.15873 -0.88889,2.66666 -4.66667,2.66666 -3.77777,0 -4.66666,-0.50793 -4.66666,-2.66666 z m 21.33333,0 c 0,-2.07408 0.88889,-2.66667 4,-2.66667 3.11111,0 4,0.59259 4,2.66667 0,2.07408 -0.88889,2.66666 -4,2.66666 -3.11111,0 -4,-0.59258 -4,-2.66666 z m 20,0 c 0,-2.15874 0.88889,-2.66667 4.66667,-2.66667 3.77777,0 4.66666,0.50793 4.66666,2.66667 0,2.15873 -0.88889,2.66666 -4.66666,2.66666 -3.77778,0 -4.66667,-0.50793 -4.66667,-2.66666 z m 21.33333,0 c 0,-2.07408 0.8889,-2.66667 4,-2.66667 3.11111,0 4,0.59259 4,2.66667 0,2.07408 -0.88889,2.66666 -4,2.66666 -3.1111,0 -4,-0.59258 -4,-2.66666 z m 20.2465,0.33333 c 0.2911,-1.53673 1.91769,-2.47597 4.76442,-2.75115 3.61276,-0.34921 4.32242,0.0339 4.32242,2.33334 0,2.26602 -0.84012,2.75114 -4.76443,2.75114 -3.81705,0 -4.67655,-0.46397 -4.32241,-2.33333 z m 21.08684,-0.33333 c 0,-2.15874 0.88889,-2.66667 4.66667,-2.66667 3.77777,0 4.66666,0.50793 4.66666,2.66667 0,2.15873 -0.88889,2.66666 -4.66666,2.66666 -3.77778,0 -4.66667,-0.50793 -4.66667,-2.66666 z m 20.66667,1.33333 c -1.40398,-2.27167 0.64642,-4 4.74536,-4 3.03241,0 3.9213,0.60448 3.9213,2.66667 0,2.06218 -0.88889,2.66666 -3.9213,2.66666 -2.15672,0 -4.29214,-0.6 -4.74536,-1.33333 z m 20.66666,-1.33333 c 0,-2.15874 0.8889,-2.66667 4.66667,-2.66667 3.77777,0 4.66667,0.50793 4.66667,2.66667 0,2.15873 -0.8889,2.66666 -4.66667,2.66666 -3.77777,0 -4.66667,-0.50793 -4.66667,-2.66666 z m 21.33334,0 c 0,-2.15874 0.88889,-2.66667 4.66666,-2.66667 3.77778,0 4.66667,0.50793 4.66667,2.66667 0,2.15873 -0.88889,2.66666 -4.66667,2.66666 -3.77777,0 -4.66666,-0.50793 -4.66666,-2.66666 z m 21.33333,0 c 0,-2.07408 0.88889,-2.66667 4,-2.66667 3.11111,0 4,0.59259 4,2.66667 0,2.07408 -0.88889,2.66666 -4,2.66666 -3.11111,0 -4,-0.59258 -4,-2.66666 z m 20,0 c 0,-2.15874 0.88889,-2.66667 4.66667,-2.66667 3.77777,0 4.66666,0.50793 4.66666,2.66667 0,2.15873 -0.88889,2.66666 -4.66666,2.66666 -3.77778,0 -4.66667,-0.50793 -4.66667,-2.66666 z M 318.91951,709.67778 c 0.28922,-3.4866 1.11647,-5.12207 2.74716,-5.43111 1.91271,-0.36247 2.33334,0.53688 2.33334,4.98892 0,4.59524 -0.42279,5.43109 -2.74716,5.43109 -2.35824,0 -2.68856,-0.70626 -2.33334,-4.9889 z M 79.333335,704.88219 c -8.318005,-2.75635 -12.930679,-5.57224 -18.191967,-11.10561 -7.609099,-8.0026 -10.827899,-15.62712 -11.525315,-27.30056 -1.095025,-18.3287 -1.581877,-17.66679 61.620607,-83.77562 21.20422,-22.17929 37.9682,-38.60775 40.94688,-40.12736 8.20384,-4.18528 17.92482,-2.81411 25.22142,3.55756 1.79782,1.56992 3.1188,0.75079 9.99478,-6.19769 l 7.92316,-8.00671 -3.74464,-6.29643 c -2.05955,-3.46304 -6.44538,-11.84642 -9.74627,-18.62976 l -6.00164,-12.33333 H 112.49737 49.164379 l 0.417812,-4.33333 0.41781,-4.33334 h 61.651089 c 54.16618,0 61.58167,-0.24281 61.07937,-2 -2.25282,-7.88071 -3.40894,-13.88239 -4.21404,-21.876 l -0.92756,-9.20935 -42.36878,0.90207 c -23.30283,0.49613 -49.91032,0.49889 -59.127761,0.007 l -16.758984,-0.89647 v -3.78292 -3.78293 l 59.000005,-0.3472 59,-0.3472 0.99321,-14.66667 c 0.54627,-8.06667 2.40088,-19.91091 4.12136,-26.32053 l 3.12815,-11.65387 -63.4547,-0.34613 -63.454692,-0.34614 -0.417811,-4.33333 c -0.331611,-3.43929 0.08103,-4.34092 2,-4.37011 1.329796,-0.0203 30.918618,-0.004 65.752933,0.0353 l 63.33513,0.0721 3.33154,-7.03225 c 1.83234,-3.86775 6.22308,-11.46582 9.75717,-16.8846 l 6.42561,-9.85234 -5.02954,-5.15072 -5.02956,-5.15079 h -70.39607 c -68.506679,0 -70.396069,-0.0686 -70.396069,-2.55761 0,-7.16795 -4.231324,-6.77572 73.096859,-6.77572 h 71.47821 l 6.34608,6.25065 6.34608,6.25067 9.03306,-8.67548 c 18.44578,-17.71557 39.16118,-28.61599 67.46178,-35.49825 14.1312,-3.4365 45.62342,-3.0745 60.99511,0.70112 29.96475,7.36 57.94947,23.71044 76.82075,44.88355 l 6.87769,7.71658 8.0591,-8.48108 c 7.52814,-7.92235 8.06214,-8.90271 8.10552,-14.88064 0.0256,-3.51975 0.92001,-8.08884 1.9877,-10.15353 2.20522,-4.26442 9.29548,-8.11599 14.92691,-8.1086 8.70736,0.012 17.32489,9.53282 16.11135,17.80122 -0.53311,3.63227 1.5048,6.85058 17.21052,27.17927 9.79837,12.68252 18.55836,24.2491 19.46665,25.7035 0.9083,1.4544 2.03362,2.64436 2.50074,2.64436 0.46712,0 3.67338,-3.45 7.12505,-7.66667 3.45167,-4.21667 13.87516,-16.50072 23.16331,-27.29788 l 16.88754,-19.63123 46.83824,-0.0355 46.83825,-0.0355 1.72217,-4.1577 c 2.14965,-5.18972 8.48353,-9.16566 14.60135,-9.16566 9.63833,0 18.34538,9.2369 16.92981,17.96004 -0.61639,3.79838 0.8632,6.16181 14.68691,23.46028 8.4548,10.58 19.04981,23.8762 23.54448,29.54708 l 8.17213,10.31072 55,0.0227 55,0.0227 v -4 c 0,-3.1111 0.59259,-4 2.66667,-4 2.07041,0 2.66667,0.8889 2.66667,3.97543 v 3.97543 l 31,0.3579 31,0.35791 v 4 4 l -84.33334,0.34328 c -46.38333,0.1888 -84.29163,0.7888 -84.24064,1.33333 0.0509,0.54454 6.82259,9.69006 15.04803,20.32339 l 14.95535,19.33333 69.61864,0.34523 69.61863,0.34523 v 3.85718 c 0,3.73815 -0.25719,3.88742 -8.33334,4.83643 -4.58333,0.53859 -35.63333,0.74749 -69,0.46425 l -60.66667,-0.51504 v 3.3085 c 0,4.67545 -4.29761,5.29282 -5.43024,0.78009 l -0.85885,-3.42192 H 752.58775 736.13123 L 712.92799,428.12603 C 700.1662,412.7952 688.52419,398.72554 687.05686,396.86012 l -2.66788,-3.39166 -79.39901,-0.74168 c -43.66945,-0.40792 -80.31445,-0.39039 -81.43333,0.0389 -1.56621,0.60101 0.32501,3.90101 8.21877,14.34092 5.6392,7.45815 14.2885,19.11027 19.22066,25.8936 l 8.96756,12.33333 h 44.35937 44.35939 l 1.83904,-4.15469 c 2.63417,-5.95101 11.19532,-9.59413 18.07912,-7.69341 6.23333,1.7211 11.19163,6.4756 12.24481,11.74149 0.59758,2.98789 1.72858,4.16721 4.60162,4.79824 2.58325,0.56737 9.5675,6.81331 21.6998,19.40585 l 17.89048,18.56923 h 94.14804 94.14806 v 3.78972 3.78971 l -95.66667,0.98041 -95.66667,0.98043 -18.80642,-19.4368 c -11.94424,-12.3446 -19.78446,-19.4368 -21.48685,-19.4368 -1.47424,0 -4.32584,1.29426 -6.33689,2.87616 -2.18327,1.71736 -6.30132,3.13029 -10.22111,3.50694 -6.28609,0.60402 -6.78696,0.3971 -11.80329,-4.87616 l -5.23863,-5.50694 h -40.16452 c -22.09048,0 -39.96452,0.4973 -39.72007,1.10512 0.24444,0.60781 3.74444,5.98753 7.77777,11.95492 l 7.33334,10.84981 14.33333,0.0451 14.33333,0.0451 v 15.93761 15.9376 l 5.90534,2.61222 c 7.18229,3.17706 10.73553,9.0468 9.62376,15.89782 -0.699,4.30746 0.54485,6.41395 17.39589,29.4603 9.98179,13.65161 19.36172,26.17112 20.84428,27.82112 2.6607,2.96118 3.1325,3 36.46315,3 32.87869,0 33.76759,-0.0703 33.76759,-2.66667 0,-1.77777 0.88889,-2.66667 2.66666,-2.66667 1.77451,0 2.66667,0.8889 2.66667,2.65687 0,2.62248 1.10899,2.66132 85.66667,3 l 85.66667,0.34313 0.42189,3.66667 0.4219,3.66667 -125.75523,-0.0541 -125.75523,-0.0543 -21.51615,-29.07195 c -20.00357,-27.02821 -21.81512,-29.08047 -25.76904,-29.19288 -8.62998,-0.24537 -15.58479,-8.94357 -13.89731,-17.38099 0.4312,-2.15601 0.10253,-5.19332 -0.73033,-6.74957 -1.32087,-2.46805 -2.70074,-2.82955 -10.80075,-2.82955 h -9.28643 v -8 -8 h -21.28112 -21.28112 l -15.15829,20.33334 c -64.79795,86.91993 -62.0492,82.96048 -61.95423,89.24228 0.1088,7.19862 -1.90299,11.13268 -7.41033,14.49075 -9.12086,5.56138 -20.80523,1.85528 -24.83684,-7.87789 -1.44072,-3.4782 -2.40215,-3.95613 -9.59578,-4.76998 -4.39704,-0.49748 -13.50434,-0.83176 -20.23845,-0.74287 -6.73412,0.0889 -12.89473,0.1232 -13.69027,0.0764 -1.23473,-0.0728 -15.70236,-16.12321 -20.87104,-23.15436 -1.57573,-2.14353 -2.52885,-2.06027 -15.01586,1.31192 -11.96457,3.23109 -15.66025,3.60661 -36.00001,3.65796 -20.70784,0.0523 -23.81892,-0.25965 -36,-3.60968 -16.57013,-4.55708 -34.11177,-12.9342 -47.86072,-22.8562 l -10.5274,-7.59715 -5.25094,5.08111 c -7.4679,7.22635 -11.28565,12.77287 -9.25715,13.44904 0.8988,0.2996 2.92001,3.03937 4.4916,6.0884 3.95073,7.66483 3.716,16.77583 -0.59893,23.24608 -1.82084,2.73027 -23.47645,25.66419 -48.12357,50.96419 -49.23681,50.54104 -50.92307,51.87625 -66.71452,52.82565 -4.59055,0.27599 -10.490746,-0.28238 -13.491705,-1.27681 z M 432.31616,593.22233 c 3.72326,-3.72326 4.75112,-4.06078 10.89744,-3.57845 3.73252,0.29291 7.7622,0.97857 8.95482,1.52371 1.67406,0.76518 4.24452,-1.83871 11.2749,-11.42155 10.2414,-13.95964 48.08969,-64.62231 56.4382,-75.54657 2.99851,-3.92364 5.45183,-7.67364 5.45183,-8.33334 0,-0.68268 -16.58119,-1.19945 -38.48552,-1.19945 H 448.3623 l -2.37186,6.33333 c -10.73266,28.65835 -37.72576,57.42719 -68.38032,72.8787 -8.05412,4.0597 -8.41072,2.47814 3.72322,16.51325 l 6,6.94008 20.4359,6.5e-4 20.4359,6.6e-4 z m -96.31615,-40.05518 c 38.52381,-7.71699 71.70416,-38.95312 82.96279,-78.10157 3.92926,-13.6628 4.25193,-46.39302 0.60201,-61.06557 -3.11404,-12.51832 -12.40909,-31.30535 -20.97117,-42.3866 -13.75656,-17.80412 -38.42823,-33.60462 -61.80691,-39.58307 -14.19238,-3.62931 -36.47567,-3.69048 -50.36463,-0.13828 -51.01365,13.0471 -85.13671,57.41608 -85.06906,110.61224 0.0363,28.48059 8.40509,51.92803 26.41107,73.99713 15.57639,19.09129 45.22314,34.90985 71.15971,37.9686 10.45129,1.23253 27.3908,0.63726 37.07619,-1.30288 z m -39.598,-34.38583 -19.73534,-23.88537 -24.78597,-0.11463 -24.78599,-0.11464 -1.54734,-3.39607 c -0.85106,-1.86784 -1.54736,-3.96784 -1.54736,-4.66666 0,-0.75392 8.9486,-1.2706 22.00598,-1.2706 h 22.00599 l -13.39975,-16.00001 -13.39974,-16 h -13.93958 -13.93957 v -4.66666 -4.66667 h 15.27937 c 17.76539,0 13.51788,-2.79591 36.96699,24.33333 l 14.69392,17.00001 h 13.21896 13.21896 l 5.74901,-6 c 4.90528,-5.11945 6.51636,-5.99881 10.97756,-5.99179 2.87571,0.004 6.94715,0.90452 9.04764,2 2.1005,1.09548 3.96532,1.99178 4.14406,1.99178 0.44502,0 43.58431,-49.07744 45.86616,-52.17969 1.75749,-2.38935 1.22103,-2.48697 -13.66667,-2.48697 h -15.49596 v 4.66666 c 0,3.77778 -0.50793,4.66667 -2.66666,4.66667 -2.15874,0 -2.66667,-0.88889 -2.66667,-4.66667 v -4.66666 h -37.92655 -37.92655 l -9.61348,-11 c -20.08508,-22.98187 -22.28692,-25 -27.27557,-25 -2.52516,0 -4.59119,-0.39747 -4.59119,-0.88327 0,-0.4858 1.9223,-3.87892 4.27178,-7.54025 l 4.27177,-6.65699 6.06156,6.87407 6.06156,6.87408 70.90921,-5e-4 70.90921,-4.8e-4 2.75746,3.8725 c 1.5166,2.12986 2.75746,4.22452 2.75746,4.65477 0,0.43025 -31.16619,0.93763 -69.25821,1.12751 l -69.2582,0.34522 7.54063,9 7.54063,9 h 58.66136 58.66135 l 5.01113,-4.89322 c 4.55333,-4.44622 5.09412,-4.65938 5.91973,-2.33334 0.49974,1.40794 1.72003,4.58318 2.71176,7.05606 3.19371,7.96353 2.55656,9.50384 -3.93121,9.50384 h -5.73436 l -24.1452,27.66666 c -13.27987,15.21667 -25.44295,29.31667 -27.02908,31.33334 l -2.88388,3.66667 h 29.43011 c 31.63344,0 31.6611,0.007 28.04986,6.75432 -1.30106,2.43104 -3.08062,2.57901 -31.01717,2.57901 -29.12442,0 -29.65967,0.0501 -30.95308,2.89541 -1.84986,4.06943 -7.23075,7.71076 -12.68078,8.58126 -5.31812,0.84942 -13.04065,-3.44987 -15.2849,-8.50942 -1.19895,-2.703 -2.24658,-2.96725 -11.76331,-2.96725 h -10.44713 l 3.09664,3.83647 c 1.70314,2.11005 10.44664,12.53053 19.42997,23.15662 8.98333,10.62608 16.33333,19.69967 16.33333,20.16354 0,0.46385 -2.36909,0.84337 -5.26466,0.84337 -5.2003,0 -5.50596,-0.29205 -25,-23.88536 z m -60.88003,-11.34721 c -1.29616,-1.97819 -2.12295,-4.29786 -1.83728,-5.15483 0.28565,-0.85697 1.57987,0.0604 2.87603,2.03857 1.29616,1.97819 2.12293,4.29787 1.83728,5.15484 -0.28567,0.85698 -1.57988,-0.0604 -2.87603,-2.03858 z M 348.00001,402.66668 c 0,-2.66667 0.66667,-4 2,-4 1.33333,0 2,1.33333 2,4 0,2.66666 -0.66667,4 -2,4 -1.33333,0 -2,-1.33334 -2,-4 z m -124,-0.52402 c 0,-1.02154 0.9,-2.2027 2,-2.62482 1.36038,-0.52203 2,0.072 2,1.85734 0,1.4443 -0.89952,2.62483 -2,2.62483 -1.1,0 -2,-0.83581 -2,-1.85735 z m 124,-28.14265 c 0,-3.25925 0.60317,-4.66667 2,-4.66667 1.39683,0 2,1.40742 2,4.66667 0,3.25925 -0.60317,4.66667 -2,4.66667 -1.39683,0 -2,-1.40742 -2,-4.66667 z m 0,-19.33333 c 0,-2.66667 0.66667,-4 2,-4 1.1,0 2.00819,0.45 2.0182,1 0.0107,0.55 0.38,2.35 0.82219,4 0.64837,2.41944 0.25781,3 -2.01822,3 -2.24685,0 -2.82217,-0.81542 -2.82217,-4 z m 196.787,116.15025 11.48203,-14.95205 -3.49568,-4.93243 c -10.89073,-15.36699 -37.63828,-50.16148 -38.77335,-50.43827 -0.73333,-0.17881 -9.60069,9.38684 -19.70524,21.25702 -27.50041,32.30572 -25.30565,30.24881 -32.27596,30.24881 h -6.0188 l -0.008,5 c -0.007,4.39881 -0.815,10.16048 -3.5068,25 l -0.72559,4 40.77255,-0.11546 40.77255,-0.11547 11.48201,-14.95207 z m 29.14764,9.51642 c -9.23446,-12.40558 -11.3959,-15.00001 -12.4966,-15.00001 -1.09121,0 -16.1047,19.22706 -16.1047,20.62453 0,0.38985 7.49604,0.70881 16.65785,0.70881 h 16.65787 z m 187.228,-36.26077 c -1.00611,-1.42674 -8.1293,-10.70488 -15.8293,-20.61806 l -14,-18.02398 -12.44444,-0.0487 c -7.38517,-0.0288 -12.26376,0.47137 -12,1.2304 0.24444,0.70345 7.64444,9.97972 16.44444,20.61393 l 16,19.33491 11.82929,0.0528 c 11.46145,0.0511 11.77242,-0.0279 10.00001,-2.54135 z m -293.63572,-5.73924 c 2.97851,-3.11666 13.00998,-14.51666 22.29216,-25.33333 l 16.8767,-19.66667 h -10.47042 c -5.75872,0 -18.7538,-0.39726 -28.87796,-0.88281 l -18.40757,-0.88281 0.70284,3.21614 c 0.38657,1.76888 1.70194,6.81615 2.92308,11.21615 1.22113,4.4 2.91433,14.75 3.76269,23 1.79651,17.47051 2.70133,18.22463 11.19848,9.33333 z m 255.13975,-42.9344 c 0,-0.33058 -7.35,-9.82149 -16.33333,-21.09089 -8.98333,-11.2694 -17.86123,-22.48537 -19.72865,-24.92439 -2.97658,-3.88765 -3.74687,-4.24644 -6.24568,-2.90912 -1.5677,0.83902 -5.68271,1.52547 -9.14446,1.52547 -5.59886,0 -6.84934,-0.58367 -11.32068,-5.28401 l -5.02656,-5.28402 -44.30865,-0.15272 -44.30866,-0.15272 -19.06953,22.43674 c -10.48824,12.3402 -19.09449,22.88673 -19.125,23.43673 -0.0305,0.55 36.09453,1.01855 80.27787,1.04123 l 80.33333,0.0412 4.48906,5.95877 4.48906,5.95877 h 12.51094 c 6.88102,3e-5 12.51094,-0.27045 12.51094,-0.60104 z m -220,-12.3194 c 0,-0.8458 -22.34968,-30.66061 -29.67946,-39.59285 -2.81222,-3.42706 -3.49008,-3.66816 -6.21397,-2.21038 -3.03391,1.62369 -12.18132,1.37878 -16.20085,-0.43376 -1.52174,-0.6862 -4.36099,1.66338 -10.38547,8.59434 -7.72667,8.88924 -8.16335,9.73383 -6.41357,12.40433 1.03269,1.5761 4.06369,7.20658 6.73557,12.5122 l 4.85793,9.64659 h 28.64991 c 15.75746,0 28.64991,-0.41421 28.64991,-0.92047 z M 318.66667,688.66668 c 0,-3.77777 0.50794,-4.66666 2.66667,-4.66666 2.15873,0 2.66667,0.88889 2.66667,4.66666 0,3.77778 -0.50794,4.66667 -2.66667,4.66667 -2.15873,0 -2.66667,-0.88889 -2.66667,-4.66667 z m 419.00001,-5.5497 c -0.91666,-0.36988 -1.66666,-2.42252 -1.66666,-4.5614 0,-3 0.60952,-3.8889 2.66666,-3.8889 2.15874,0 2.66667,0.8889 2.66667,4.66667 0,4.62565 -0.44412,5.08395 -3.66667,3.78363 z M 318.66667,668.00002 c 0,-4.44444 0.44444,-5.33334 2.66667,-5.33334 2.22223,0 2.66667,0.8889 2.66667,5.33334 0,4.44444 -0.44444,5.33333 -2.66667,5.33333 -2.22223,0 -2.66667,-0.88889 -2.66667,-5.33333 z m 417.5822,-9.66667 c 0.26779,-2.77727 1.136,-4.33333 2.41781,-4.33333 1.28182,0 2.15003,1.55606 2.41782,4.33333 0.35302,3.66148 -0.0219,4.33333 -2.41782,4.33333 -2.39597,0 -2.77084,-0.67185 -2.41781,-4.33333 z m -180.24886,-5 c 0,-2.15873 0.8889,-2.66667 4.66667,-2.66667 3.77777,0 4.66667,0.50794 4.66667,2.66667 0,2.15873 -0.8889,2.66667 -4.66667,2.66667 -3.77777,0 -4.66667,-0.50794 -4.66667,-2.66667 z m 21.33334,0 c 0,-2.15873 0.88889,-2.66667 4.66666,-2.66667 3.77778,0 4.66667,0.50794 4.66667,2.66667 0,2.15873 -0.88889,2.66667 -4.66667,2.66667 -3.77777,0 -4.66666,-0.50794 -4.66666,-2.66667 z m 21.33333,0 c 0,-2.15873 0.88889,-2.66667 4.66667,-2.66667 3.77777,0 4.66666,0.50794 4.66666,2.66667 0,2.15873 -0.88889,2.66667 -4.66666,2.66667 -3.77778,0 -4.66667,-0.50794 -4.66667,-2.66667 z m 20.71311,1.40848 c -1.52405,-2.46597 0.63328,-4.07515 5.46335,-4.07515 3.7421,0 4.59673,0.4699 4.24372,2.33334 -0.5029,2.65474 -8.28034,4.0503 -9.70707,1.74181 z m 20.62023,-1.40848 c 0,-2.15873 0.88889,-2.66667 4.66666,-2.66667 3.77778,0 4.66667,0.50794 4.66667,2.66667 0,2.15873 -0.88889,2.66667 -4.66667,2.66667 -3.77777,0 -4.66666,-0.50794 -4.66666,-2.66667 z m 21.33333,0 c 0,-2.15873 0.88889,-2.66667 4.66667,-2.66667 3.77777,0 4.66666,0.50794 4.66666,2.66667 0,2.15873 -0.88889,2.66667 -4.66666,2.66667 -3.77778,0 -4.66667,-0.50794 -4.66667,-2.66667 z m 21.33333,0 c 0,-2.15873 0.8889,-2.66667 4.66667,-2.66667 3.77777,0 4.66667,0.50794 4.66667,2.66667 0,2.15873 -0.8889,2.66667 -4.66667,2.66667 -3.77777,0 -4.66667,-0.50794 -4.66667,-2.66667 z m 21.33334,0 c 0,-2.15873 0.88889,-2.66667 4.66666,-2.66667 3.77778,0 4.66667,0.50794 4.66667,2.66667 0,2.15873 -0.88889,2.66667 -4.66667,2.66667 -3.77777,0 -4.66666,-0.50794 -4.66666,-2.66667 z m 21.33333,0.0845 c 0,-2.26608 0.84012,-2.7512 4.76443,-2.7512 3.81705,0 4.67654,0.46398 4.32241,2.33334 -0.29111,1.53673 -1.91769,2.47597 -4.76443,2.75114 -3.61276,0.34922 -4.32241,-0.0339 -4.32241,-2.33333 z m -406.66668,-6.08453 c 0,-3.77777 0.50794,-4.66667 2.66667,-4.66667 2.15873,0 2.66667,0.8889 2.66667,4.66667 0,3.77777 -0.50794,4.66667 -2.66667,4.66667 -2.15873,0 -2.66667,-0.8889 -2.66667,-4.66667 z m 417.33335,-10.66667 c 0,-3.77777 0.50793,-4.66666 2.66666,-4.66666 2.15874,0 2.66667,0.88889 2.66667,4.66666 0,3.77778 -0.50793,4.66667 -2.66667,4.66667 -2.15873,0 -2.66666,-0.88889 -2.66666,-4.66667 z M 318.66667,626.00002 c 0,-3.77778 0.50794,-4.66667 2.66667,-4.66667 2.15873,0 2.66667,0.88889 2.66667,4.66667 0,3.77777 -0.50794,4.66666 -2.66667,4.66666 -2.15873,0 -2.66667,-0.88889 -2.66667,-4.66666 z m 417.33335,-10.66667 c 0,-3.77778 0.50793,-4.66667 2.66666,-4.66667 2.15874,0 2.66667,0.88889 2.66667,4.66667 0,3.77777 -0.50793,4.66667 -2.66667,4.66667 -2.15873,0 -2.66666,-0.8889 -2.66666,-4.66667 z m -417.33335,-10 c 0,-4.44444 0.44444,-5.33334 2.66667,-5.33334 2.22223,0 2.66667,0.8889 2.66667,5.33334 0,4.44444 -0.44444,5.33333 -2.66667,5.33333 -2.22223,0 -2.66667,-0.88889 -2.66667,-5.33333 z m 417.33335,-36.66667 c 0,-3.77777 0.50793,-4.66667 2.66666,-4.66667 2.15874,0 2.66667,0.8889 2.66667,4.66667 0,3.77777 -0.50793,4.66667 -2.66667,4.66667 -2.15873,0 -2.66666,-0.8889 -2.66666,-4.66667 z m 0,-21.33333 c 0,-3.77778 0.50793,-4.66667 2.66666,-4.66667 2.15874,0 2.66667,0.88889 2.66667,4.66667 0,3.77777 -0.50793,4.66666 -2.66667,4.66666 -2.15873,0 -2.66666,-0.88889 -2.66666,-4.66666 z m 0,-21.33334 c 0,-3.77777 0.50793,-4.66666 2.66666,-4.66666 2.15874,0 2.66667,0.88889 2.66667,4.66666 0,3.77778 -0.50793,4.66667 -2.66667,4.66667 -2.15873,0 -2.66666,-0.88889 -2.66666,-4.66667 z m 0,-20 c 0,-3.77777 0.50793,-4.66666 2.66666,-4.66666 2.15874,0 2.66667,0.88889 2.66667,4.66666 0,3.77778 -0.50793,4.66667 -2.66667,4.66667 -2.15873,0 -2.66666,-0.88889 -2.66666,-4.66667 z m 109.33333,-86.66667 c 0,-3.77777 0.50794,-4.66666 2.66667,-4.66666 2.15873,0 2.66667,0.88889 2.66667,4.66666 0,3.77778 -0.50794,4.66667 -2.66667,4.66667 -2.15873,0 -2.66667,-0.88889 -2.66667,-4.66667 z M 736.00002,378.00001 c 0,-3.77777 0.50793,-4.66667 2.66666,-4.66667 2.15874,0 2.66667,0.8889 2.66667,4.66667 0,3.77777 -0.50793,4.66667 -2.66667,4.66667 -2.15873,0 -2.66666,-0.8889 -2.66666,-4.66667 z m 109.33333,-5.33333 c 0,-3.77778 0.50794,-4.66667 2.66667,-4.66667 2.15873,0 2.66667,0.88889 2.66667,4.66667 0,3.77777 -0.50794,4.66666 -2.66667,4.66666 -2.15873,0 -2.66667,-0.88889 -2.66667,-4.66666 z m -108.44444,-10.8889 c -0.48889,-0.48888 -0.88889,-2.88888 -0.88889,-5.33333 0,-3.55555 0.53333,-4.44444 2.66666,-4.44444 2.22223,0 2.66667,0.88889 2.66667,5.33333 0,5.02778 -1.93056,6.95834 -4.44444,4.44444 z m 108.44444,-10.44444 c 0,-3.77777 0.50794,-4.66666 2.66667,-4.66666 2.15873,0 2.66667,0.88889 2.66667,4.66666 0,3.77778 -0.50794,4.66667 -2.66667,4.66667 -2.15873,0 -2.66667,-0.88889 -2.66667,-4.66667 z M 736.00002,336.66667 c 0,-3.77777 0.50793,-4.66666 2.66666,-4.66666 2.15874,0 2.66667,0.88889 2.66667,4.66666 0,3.77778 -0.50793,4.66667 -2.66667,4.66667 -2.15873,0 -2.66666,-0.88889 -2.66666,-4.66667 z m 109.33333,-6.66666 c 0,-3.77778 0.50794,-4.66667 2.66667,-4.66667 2.15873,0 2.66667,0.88889 2.66667,4.66667 0,3.77777 -0.50794,4.66666 -2.66667,4.66666 -2.15873,0 -2.66667,-0.88889 -2.66667,-4.66666 z M 736.00002,315.33334 c 0,-3.77777 0.50793,-4.66667 2.66666,-4.66667 2.15874,0 2.66667,0.8889 2.66667,4.66667 0,3.77777 -0.50793,4.66667 -2.66667,4.66667 -2.15873,0 -2.66666,-0.8889 -2.66666,-4.66667 z m 109.33333,-6.66667 c 0,-3.77777 0.50794,-4.66666 2.66667,-4.66666 2.15873,0 2.66667,0.88889 2.66667,4.66666 0,3.77778 -0.50794,4.66667 -2.66667,4.66667 -2.15873,0 -2.66667,-0.88889 -2.66667,-4.66667 z M 736.00002,294.00001 c 0,-3.77778 0.50793,-4.66667 2.66666,-4.66667 2.15874,0 2.66667,0.88889 2.66667,4.66667 0,3.77777 -0.50793,4.66666 -2.66667,4.66666 -2.15873,0 -2.66666,-0.88889 -2.66666,-4.66666 z m 109.33333,-6.66667 c 0,-3.77777 0.50794,-4.66667 2.66667,-4.66667 2.15873,0 2.66667,0.8889 2.66667,4.66667 0,3.77777 -0.50794,4.66667 -2.66667,4.66667 -2.15873,0 -2.66667,-0.8889 -2.66667,-4.66667 z m -497.33334,-4 c 0,-3.77777 0.50793,-4.66667 2.66667,-4.66667 2.15873,0 2.66666,0.8889 2.66666,4.66667 0,3.77777 -0.50793,4.66667 -2.66666,4.66667 -2.15874,0 -2.66667,-0.8889 -2.66667,-4.66667 z m 388.00001,-10.22259 c 0,-4.33309 0.42793,-5.22521 2.33333,-4.86425 1.51119,0.28627 2.47597,1.90363 2.73815,4.59023 0.31741,3.25253 -0.1864,4.30281 -2.33334,4.86425 -2.42324,0.63369 -2.73814,0.10577 -2.73814,-4.59023 z m -562.28127,3.227 -16.28125,-0.41898 0.0731,-17.95939 0.0731,-17.95937 h 17.87485 17.87487 v 18.66666 c 0,14.1982 -0.39897,18.59766 -1.66667,18.37838 -0.91666,-0.15856 -8.99322,-0.47684 -17.94792,-0.7073 z m 640.52928,-7.8675 c -0.50306,-0.50308 -0.91468,-14.01468 -0.91468,-30.0258 v -29.11111 h 28.66667 28.66667 v 28.66667 c 0,15.76666 8e-4,29.11666 10e-4,29.66666 0.003,1.25967 -55.17843,2.04559 -56.42044,0.80358 z M 348.8889,265.77778 c -0.48889,-0.48888 -0.88889,-2.58888 -0.88889,-4.66667 0,-3.42857 0.43137,-3.77777 4.66667,-3.77777 3.25925,0 4.66666,0.60317 4.66666,2 0,1.1 -0.83002,2 -1.84449,2 -1.01447,0 -2.15829,1.2 -2.54184,2.66667 -0.70119,2.68132 -2.4072,3.42869 -4.05811,1.77777 z m 103.47467,-5.42019 c -0.92352,-2.40666 -0.48736,-2.69133 4.94951,-3.2303 3.47929,-0.34491 4.75234,0.0868 5.06814,1.71889 0.55284,2.85703 -8.95105,4.29093 -10.01765,1.51141 z m 62.96219,1.19039 c -2.16009,-2.16011 -0.20649,-4.21464 4.00759,-4.21464 5.88704,0 6.41617,3.44056 0.65908,4.28552 -2.20418,0.32351 -4.30418,0.29161 -4.66667,-0.0709 z m -312.42352,-2.28507 c 0.2371,-1.13873 0.8811,-2.03873 1.4311,-2 0.55,0.0387 2.5,0.0704 4.33333,0.0704 2.07408,0 3.33334,0.75556 3.33334,2 0,1.40464 -1.41827,2 -4.76443,2 -3.60328,0 -4.65938,-0.50458 -4.33334,-2.07042 z m 21.09777,0.0704 c 0,-1.39683 1.40741,-2 4.66666,-2 3.25926,0 4.66667,0.60317 4.66667,2 0,1.39683 -1.40741,2 -4.66667,2 -3.25925,0 -4.66666,-0.60317 -4.66666,-2 z m 20.947,-0.66667 c 1.25493,-4.79886 9.71966,-2.96212 9.71966,2.10906 0,0.30668 -2.34382,0.55761 -5.2085,0.55761 -4.55207,0 -5.12062,-0.33608 -4.51116,-2.66667 z m 20.64016,0.33334 c 0.30777,-1.59815 1.69817,-2.33334 4.41284,-2.33334 2.71466,0 4.10506,0.73519 4.41284,2.33334 0.36162,1.8778 -0.49988,2.33333 -4.41284,2.33333 -3.91296,0 -4.77447,-0.45553 -4.41284,-2.33333 z m 21.0795,-0.33334 c 0,-2.07408 0.8889,-2.66666 4,-2.66666 3.11111,0 4,0.59258 4,2.66666 0,2.07408 -0.88889,2.66667 -4,2.66667 -3.1111,0 -4,-0.59259 -4,-2.66667 z m 20,0.80932 c 0,-3.85826 8.34987,-4.1795 9.09776,-0.35001 0.33648,1.72287 -0.61464,2.20736 -4.33333,2.20736 -3.18352,0 -4.76443,-0.61629 -4.76443,-1.85735 z m 20.85116,-0.14265 c 0.42808,-1.11555 2.41022,-2 4.48218,-2 2.07196,0 4.05409,0.88445 4.48217,2 0.60211,1.56908 -0.36361,2 -4.48217,2 -4.11856,0 -5.08428,-0.43092 -4.48218,-2 z m 41.81551,0 c 0,-1.39683 1.40742,-2 4.66667,-2 3.25925,0 4.66667,0.60317 4.66667,2 0,1.39683 -1.40742,2 -4.66667,2 -3.25925,0 -4.66667,-0.60317 -4.66667,-2 z m 21.33334,-0.46667 c 0,-3.42456 8.41812,-3.30093 9.0795,0.13334 0.36027,1.87073 -0.49522,2.33333 -4.31508,2.33333 -3.74677,0 -4.76442,-0.52687 -4.76442,-2.46667 z m 20,0.46667 c 0,-1.39683 1.40741,-2 4.66666,-2 3.25926,0 4.66667,0.60317 4.66667,2 0,1.39683 -1.40741,2 -4.66667,2 -3.25925,0 -4.66666,-0.60317 -4.66666,-2 z m 21.33333,0 c 0,-1.39683 1.40741,-2 4.66667,-2 3.25925,0 4.66666,0.60317 4.66666,2 0,1.39683 -1.40741,2 -4.66666,2 -3.25926,0 -4.66667,-0.60317 -4.66667,-2 z m 41.33333,0 c 0,-1.39683 1.40742,-2 4.66667,-2 3.25926,0 4.66667,0.60317 4.66667,2 0,1.39683 -1.40741,2 -4.66667,2 -3.25925,0 -4.66667,-0.60317 -4.66667,-2 z m 21.33334,0 c 0,-1.39683 1.40741,-2 4.66667,-2 3.25925,0 4.66666,0.60317 4.66666,2 0,1.39683 -1.40741,2 -4.66666,2 -3.25926,0 -4.66667,-0.60317 -4.66667,-2 z m 41.33333,0 c 0,-1.39683 1.40742,-2 4.66667,-2 3.25925,0 4.66667,0.60317 4.66667,2 0,1.39683 -1.40742,2 -4.66667,2 -3.25925,0 -4.66667,-0.60317 -4.66667,-2 z m 21.33334,0 c 0,-1.39683 1.40741,-2 4.66666,-2 3.25926,0 4.66667,0.60317 4.66667,2 0,1.39683 -1.40741,2 -4.66667,2 -3.25925,0 -4.66666,-0.60317 -4.66666,-2 z m 20,0 c 0,-1.42995 1.45678,-2 5.1111,-2 3.65432,0 5.11112,0.57005 5.11112,2 0,1.42995 -1.4568,2 -5.11112,2 -3.65432,0 -5.1111,-0.57005 -5.1111,-2 z m 21.33333,0 c 0,-1.39683 1.40741,-2 4.66667,-2 3.25925,0 4.66666,0.60317 4.66666,2 0,1.39683 -1.40741,2 -4.66666,2 -3.25926,0 -4.66667,-0.60317 -4.66667,-2 z m 21.33334,0 c 0,-1.39683 1.40741,-2 4.66666,-2 3.25926,0 4.66667,0.60317 4.66667,2 0,1.39683 -1.40741,2 -4.66667,2 -3.25925,0 -4.66666,-0.60317 -4.66666,-2 z m 20.23557,-0.0704 c 0.23709,-1.13873 0.88109,-2.03873 1.43109,-2 0.55,0.0387 2.5,0.0704 4.33334,0.0704 2.07408,0 3.33333,0.75556 3.33333,2 0,1.40464 -1.41827,2 -4.76443,2 -3.60328,0 -4.65937,-0.50459 -4.33333,-2.07043 z m 21.09776,-0.59627 c 0,-2.15873 0.88889,-2.66666 4.66667,-2.66666 3.77777,0 4.66666,0.50793 4.66666,2.66666 0,2.15874 -0.88889,2.66667 -4.66666,2.66667 -3.77778,0 -4.66667,-0.50793 -4.66667,-2.66667 z m 21.33333,0 c 0,-2.07408 0.8889,-2.66666 4,-2.66666 3.11111,0 4,0.59258 4,2.66666 0,2.07408 -0.88889,2.66667 -4,2.66667 -3.1111,0 -4,-0.59259 -4,-2.66667 z m 20.2465,0.33334 c 0.2911,-1.53674 1.91769,-2.47598 4.76442,-2.75115 3.61276,-0.34921 4.32242,0.0339 4.32242,2.33333 0,2.26603 -0.84012,2.75115 -4.76443,2.75115 -3.81705,0 -4.67655,-0.46397 -4.32241,-2.33333 z m 21.08684,-0.33334 c 0,-2.07408 0.88889,-2.66666 4,-2.66666 3.1111,0 4,0.59258 4,2.66666 0,2.07408 -0.8889,2.66667 -4,2.66667 -3.11111,0 -4,-0.59259 -4,-2.66667 z"
         id="path1069" />
      <path
         style="fill:#8abb63;stroke-width:1.33333"
         d="m 608.00001,724.00002 v -17.33334 h 16.66667 16.66667 v 17.33334 17.33333 h -16.66667 -16.66667 z m -286.66667,0 c 0,-2.07408 0.88889,-2.66667 4,-2.66667 3.11111,0 4,0.59259 4,2.66667 0,2.07408 -0.88889,2.66666 -4,2.66666 -3.11111,0 -4,-0.59258 -4,-2.66666 z m 19.19068,0.55761 c 0.44513,-1.15997 0.80932,-2.35997 0.80932,-2.66667 0,-0.30668 1.8,-0.55761 4,-0.55761 3.11111,0 4,0.59259 4,2.66667 0,2.1738 -0.88889,2.66666 -4.80932,2.66666 -3.83768,0 -4.64581,-0.42609 -4,-2.10905 z m 20.80932,-0.55761 c 0,-2.15874 0.8889,-2.66667 4.66667,-2.66667 3.77777,0 4.66667,0.50793 4.66667,2.66667 0,2.15873 -0.8889,2.66666 -4.66667,2.66666 -3.77777,0 -4.66667,-0.50793 -4.66667,-2.66666 z m 21.33334,0 c 0,-2.15874 0.88889,-2.66667 4.66666,-2.66667 3.77778,0 4.66667,0.50793 4.66667,2.66667 0,2.15873 -0.88889,2.66666 -4.66667,2.66666 -3.77777,0 -4.66666,-0.50793 -4.66666,-2.66666 z m 21.33333,0 c 0,-2.07408 0.88889,-2.66667 4,-2.66667 3.11111,0 4,0.59259 4,2.66667 0,2.07408 -0.88889,2.66666 -4,2.66666 -3.11111,0 -4,-0.59258 -4,-2.66666 z m 20,0 c 0,-2.15874 0.88889,-2.66667 4.66667,-2.66667 3.77777,0 4.66666,0.50793 4.66666,2.66667 0,2.15873 -0.88889,2.66666 -4.66666,2.66666 -3.77778,0 -4.66667,-0.50793 -4.66667,-2.66666 z m 21.33333,0 c 0,-2.07408 0.8889,-2.66667 4,-2.66667 3.11111,0 4,0.59259 4,2.66667 0,2.07408 -0.88889,2.66666 -4,2.66666 -3.1111,0 -4,-0.59258 -4,-2.66666 z m 20.2465,0.33333 c 0.2911,-1.53673 1.91769,-2.47597 4.76442,-2.75115 3.61276,-0.34921 4.32242,0.0339 4.32242,2.33334 0,2.26602 -0.84012,2.75114 -4.76443,2.75114 -3.81705,0 -4.67655,-0.46397 -4.32241,-2.33333 z m 21.08684,-0.33333 c 0,-2.15874 0.88889,-2.66667 4.66667,-2.66667 3.77777,0 4.66666,0.50793 4.66666,2.66667 0,2.15873 -0.88889,2.66666 -4.66666,2.66666 -3.77778,0 -4.66667,-0.50793 -4.66667,-2.66666 z m 20.66667,1.33333 c -1.40398,-2.27167 0.64642,-4 4.74536,-4 3.03241,0 3.9213,0.60448 3.9213,2.66667 0,2.06218 -0.88889,2.66666 -3.9213,2.66666 -2.15672,0 -4.29214,-0.6 -4.74536,-1.33333 z m 20.66666,-1.33333 c 0,-2.15874 0.8889,-2.66667 4.66667,-2.66667 3.77777,0 4.66667,0.50793 4.66667,2.66667 0,2.15873 -0.8889,2.66666 -4.66667,2.66666 -3.77777,0 -4.66667,-0.50793 -4.66667,-2.66666 z m 21.33334,0 c 0,-2.15874 0.88889,-2.66667 4.66666,-2.66667 3.77778,0 4.66667,0.50793 4.66667,2.66667 0,2.15873 -0.88889,2.66666 -4.66667,2.66666 -3.77777,0 -4.66666,-0.50793 -4.66666,-2.66666 z m 21.33333,0 c 0,-2.07408 0.88889,-2.66667 4,-2.66667 3.11111,0 4,0.59259 4,2.66667 0,2.07408 -0.88889,2.66666 -4,2.66666 -3.11111,0 -4,-0.59258 -4,-2.66666 z m 20,0 c 0,-2.15874 0.88889,-2.66667 4.66667,-2.66667 3.77777,0 4.66666,0.50793 4.66666,2.66667 0,2.15873 -0.88889,2.66666 -4.66666,2.66666 -3.77778,0 -4.66667,-0.50793 -4.66667,-2.66666 z M 318.91951,709.67778 c 0.28922,-3.4866 1.11647,-5.12207 2.74716,-5.43111 1.91271,-0.36247 2.33334,0.53688 2.33334,4.98892 0,4.59524 -0.42279,5.43109 -2.74716,5.43109 -2.35824,0 -2.68856,-0.70626 -2.33334,-4.9889 z M 79.333335,704.88219 c -8.318005,-2.75635 -12.930679,-5.57224 -18.191967,-11.10561 -7.609099,-8.0026 -10.827899,-15.62712 -11.525315,-27.30056 -1.095025,-18.3287 -1.581877,-17.66679 61.620607,-83.77562 21.20422,-22.17929 37.9682,-38.60775 40.94688,-40.12736 8.20384,-4.18528 17.92482,-2.81411 25.22142,3.55756 1.79782,1.56992 3.1188,0.75079 9.99478,-6.19769 l 7.92316,-8.00671 -3.74868,-6.29643 c -13.28334,-22.31116 -20.74878,-43.25208 -23.36687,-65.54505 -1.74379,-14.8484 0.27888,-41.50899 4.28832,-56.52359 l 3.08039,-11.53552 -63.4547,-0.34613 -63.454692,-0.34614 -0.417811,-4.33333 c -0.331611,-3.43929 0.08103,-4.34092 2,-4.37011 1.329796,-0.0203 30.918618,-0.004 65.752933,0.0353 l 63.33513,0.0721 3.32758,-7.03532 c 12.3393,-26.08829 38.08532,-52.65406 63.33551,-65.35208 8.87304,-4.46216 23.99264,-9.82684 35.76206,-12.68899 14.1312,-3.43649 45.62342,-3.07449 60.99511,0.70112 42.33516,10.39844 77.20172,36.78179 95.92603,72.58676 l 6.88116,13.15827 34.88448,-0.1204 c 19.18647,-0.0663 73.8845,-0.0717 121.55116,-0.012 l 86.66667,0.10813 4.48906,5.95878 4.48906,5.95877 h 13.05908 13.05908 l 3.65128,4.33333 3.65128,4.33334 -12.29344,0.38461 c -6.76138,0.21153 -12.10113,0.93709 -11.86608,1.61233 0.23504,0.67526 7.62735,9.9477 16.42735,20.60544 l 16,19.37771 17.33334,-0.0581 c 9.53333,-0.032 48.68333,-0.0275 87,0.009 l 69.66667,0.0683 v 3.86908 c 0,3.75274 -0.2506,3.89853 -8.33334,4.84832 -4.58333,0.53858 -35.63333,0.74749 -69,0.46425 l -60.66667,-0.51499 v 3.3085 c 0,4.67545 -4.29761,5.29282 -5.43024,0.78009 l -0.85885,-3.42192 H 752.58775 736.13123 L 712.92799,428.12577 C 700.1662,412.79494 688.45746,398.64044 686.90856,396.67133 l -2.81618,-3.58019 -117.49129,-0.3171 -117.49127,-0.3171 0.61786,2.77154 c 0.33981,1.52434 1.60314,6.37153 2.80741,10.77153 7.49668,27.39061 5.01572,67.39467 -5.78935,93.34958 -19.57364,47.01802 -58.80978,78.3611 -110.24707,88.06888 -16.91561,3.19248 -43.24498,2.02632 -60.49866,-2.67956 -15.91264,-4.34011 -33.5877,-12.8182 -47.19406,-22.6373 l -10.5274,-7.59714 -5.25094,5.0811 c -7.4679,7.22635 -11.28565,12.77287 -9.25715,13.44904 0.8988,0.2996 2.92001,3.03938 4.4916,6.0884 3.95073,7.66483 3.716,16.77583 -0.59893,23.24608 -1.82084,2.73034 -23.47645,25.66426 -48.12357,50.96426 -49.23681,50.54104 -50.92307,51.87625 -66.71452,52.82565 -4.59055,0.27599 -10.490746,-0.28238 -13.491705,-1.27681 z M 336.00001,553.16715 c 38.52381,-7.71699 71.70416,-38.95312 82.96279,-78.10157 3.92926,-13.6628 4.25193,-46.39302 0.60201,-61.06557 -3.11404,-12.51832 -12.40909,-31.30535 -20.97117,-42.3866 -13.75656,-17.80412 -38.42823,-33.60462 -61.80691,-39.58307 -14.19238,-3.62931 -36.47567,-3.69048 -50.36463,-0.13828 -51.01365,13.0471 -85.13671,57.41608 -85.06906,110.61224 0.0363,28.48059 8.40509,51.92803 26.41107,73.99713 15.57639,19.09129 45.22314,34.90985 71.15971,37.9686 10.45129,1.23253 27.3908,0.63726 37.07619,-1.30288 z M 235.52198,507.43411 c -1.29616,-1.97819 -2.12295,-4.29786 -1.83728,-5.15483 0.28565,-0.85697 1.57987,0.0604 2.87603,2.03857 1.29616,1.97819 2.12293,4.29787 1.83728,5.15484 -0.28567,0.85698 -1.57988,-0.0604 -2.87603,-2.03858 z m 112.47803,-80.10077 v -4.66666 h -37.83019 -37.83019 l -5.50314,-5.97022 c -5.78916,-6.28049 -6.60404,-7.70188 -3.79823,-6.62518 0.93772,0.35982 2.88772,-0.21815 4.33333,-1.28439 2.37776,-1.75376 2.88271,-1.63105 5.29508,1.28673 l 2.66667,3.22536 65.56795,0.1316 c 70.45067,0.14155 67.09872,-0.19208 67.09872,6.67848 0,2.4381 -1.27736,2.55762 -27.33333,2.55762 h -27.33334 v 4.66666 c 0,3.77778 -0.50793,4.66667 -2.66666,4.66667 -2.15874,0 -2.66667,-0.88889 -2.66667,-4.66667 z m 0,-24.66666 c 0,-2.66667 0.66667,-4 2,-4 1.33333,0 2,1.33333 2,4 0,2.66666 -0.66667,4 -2,4 -1.33333,0 -2,-1.33334 -2,-4 z m -124,-0.52402 c 0,-1.02154 0.9,-2.2027 2,-2.62482 1.36038,-0.52203 2,0.072 2,1.85734 0,1.4443 -0.89952,2.62483 -2,2.62483 -1.1,0 -2,-0.83581 -2,-1.85735 z m 20.1423,-10.65784 c -3.6964,-3.93464 -3.55184,-4.46533 1.03314,-3.7924 2.11316,0.31015 4.24856,-0.0937 4.74536,-0.89758 0.6367,-1.03023 21.90253,-1.4615 72.06709,-1.4615 h 71.16386 l 2.75746,3.8725 c 1.5166,2.12986 2.75746,4.24993 2.75746,4.71124 0,0.46132 -34.13596,0.77553 -75.8577,0.69826 l -75.85769,-0.1405 z m -13.47564,-5.89664 c 0,-1.52766 3.68774,-6.38782 4.23854,-5.58608 0.2511,0.36552 1.59314,2.01458 2.98232,3.66458 l 2.52578,3 h -4.87332 c -2.68033,0 -4.87332,-0.48532 -4.87332,-1.0785 z m 117.33334,-11.58817 c 0,-3.25925 0.60317,-4.66667 2,-4.66667 1.39683,0 2,1.40742 2,4.66667 0,3.25925 -0.60317,4.66667 -2,4.66667 -1.39683,0 -2,-1.40742 -2,-4.66667 z m 0,-19.33333 c 0,-2.66667 0.66667,-4 2,-4 1.1,0 2.00819,0.45 2.0182,1 0.0107,0.55 0.38,2.35 0.82219,4 0.64837,2.41944 0.25781,3 -2.01822,3 -2.24685,0 -2.82217,-0.81542 -2.82217,-4 z m -29.33334,334 c 0,-3.77777 0.50794,-4.66666 2.66667,-4.66666 2.15873,0 2.66667,0.88889 2.66667,4.66666 0,3.77778 -0.50794,4.66667 -2.66667,4.66667 -2.15873,0 -2.66667,-0.88889 -2.66667,-4.66667 z m 419.00001,-5.5497 c -0.91666,-0.36988 -1.66666,-2.42252 -1.66666,-4.5614 0,-3 0.60952,-3.8889 2.66666,-3.8889 2.15874,0 2.66667,0.8889 2.66667,4.66667 0,4.62565 -0.44412,5.08395 -3.66667,3.78363 z M 318.66667,668.00002 c 0,-4.44444 0.44444,-5.33334 2.66667,-5.33334 2.22223,0 2.66667,0.8889 2.66667,5.33334 0,4.44444 -0.44444,5.33333 -2.66667,5.33333 -2.22223,0 -2.66667,-0.88889 -2.66667,-5.33333 z m 417.5822,-9.66667 c 0.26779,-2.77727 1.136,-4.33333 2.41781,-4.33333 1.28182,0 2.15003,1.55606 2.41782,4.33333 0.35302,3.66148 -0.0219,4.33333 -2.41782,4.33333 -2.39597,0 -2.77084,-0.67185 -2.41781,-4.33333 z m -180.24886,-5 c 0,-2.15873 0.8889,-2.66667 4.66667,-2.66667 3.77777,0 4.66667,0.50794 4.66667,2.66667 0,2.15873 -0.8889,2.66667 -4.66667,2.66667 -3.77777,0 -4.66667,-0.50794 -4.66667,-2.66667 z m 21.33334,0 c 0,-2.15873 0.88889,-2.66667 4.66666,-2.66667 3.77778,0 4.66667,0.50794 4.66667,2.66667 0,2.15873 -0.88889,2.66667 -4.66667,2.66667 -3.77777,0 -4.66666,-0.50794 -4.66666,-2.66667 z m 21.33333,0 c 0,-2.15873 0.88889,-2.66667 4.66667,-2.66667 3.77777,0 4.66666,0.50794 4.66666,2.66667 0,2.15873 -0.88889,2.66667 -4.66666,2.66667 -3.77778,0 -4.66667,-0.50794 -4.66667,-2.66667 z m 20.71311,1.40848 c -1.52405,-2.46597 0.63328,-4.07515 5.46335,-4.07515 3.7421,0 4.59673,0.4699 4.24372,2.33334 -0.5029,2.65474 -8.28034,4.0503 -9.70707,1.74181 z m 20.62023,-1.40848 c 0,-2.15873 0.88889,-2.66667 4.66666,-2.66667 3.77778,0 4.66667,0.50794 4.66667,2.66667 0,2.15873 -0.88889,2.66667 -4.66667,2.66667 -3.77777,0 -4.66666,-0.50794 -4.66666,-2.66667 z m 21.33333,0 c 0,-2.15873 0.88889,-2.66667 4.66667,-2.66667 3.77777,0 4.66666,0.50794 4.66666,2.66667 0,2.15873 -0.88889,2.66667 -4.66666,2.66667 -3.77778,0 -4.66667,-0.50794 -4.66667,-2.66667 z m 21.33333,0 c 0,-2.15873 0.8889,-2.66667 4.66667,-2.66667 3.77777,0 4.66667,0.50794 4.66667,2.66667 0,2.15873 -0.8889,2.66667 -4.66667,2.66667 -3.77777,0 -4.66667,-0.50794 -4.66667,-2.66667 z m 21.33334,0 c 0,-2.15873 0.88889,-2.66667 4.66666,-2.66667 3.77778,0 4.66667,0.50794 4.66667,2.66667 0,2.15873 -0.88889,2.66667 -4.66667,2.66667 -3.77777,0 -4.66666,-0.50794 -4.66666,-2.66667 z m 21.33333,0.0845 c 0,-2.26608 0.84012,-2.7512 4.76443,-2.7512 3.81705,0 4.67654,0.46398 4.32241,2.33334 -0.29111,1.53673 -1.91769,2.47597 -4.76443,2.75114 -3.61276,0.34922 -4.32241,-0.0339 -4.32241,-2.33333 z m -406.66668,-6.08453 c 0,-3.77777 0.50794,-4.66667 2.66667,-4.66667 2.15873,0 2.66667,0.8889 2.66667,4.66667 0,3.77777 -0.50794,4.66667 -2.66667,4.66667 -2.15873,0 -2.66667,-0.8889 -2.66667,-4.66667 z m 417.33335,-10.66667 c 0,-3.77777 0.50793,-4.66666 2.66666,-4.66666 2.15874,0 2.66667,0.88889 2.66667,4.66666 0,3.77778 -0.50793,4.66667 -2.66667,4.66667 -2.15873,0 -2.66666,-0.88889 -2.66666,-4.66667 z M 318.66667,626.00002 c 0,-3.77778 0.50794,-4.66667 2.66667,-4.66667 2.15873,0 2.66667,0.88889 2.66667,4.66667 0,3.77777 -0.50794,4.66666 -2.66667,4.66666 -2.15873,0 -2.66667,-0.88889 -2.66667,-4.66666 z m 417.33335,-10.66667 c 0,-3.77778 0.50793,-4.66667 2.66666,-4.66667 2.15874,0 2.66667,0.88889 2.66667,4.66667 0,3.77777 -0.50793,4.66667 -2.66667,4.66667 -2.15873,0 -2.66666,-0.8889 -2.66666,-4.66667 z m -417.33335,-10 c 0,-4.44444 0.44444,-5.33334 2.66667,-5.33334 2.22223,0 2.66667,0.8889 2.66667,5.33334 0,4.44444 -0.44444,5.33333 -2.66667,5.33333 -2.22223,0 -2.66667,-0.88889 -2.66667,-5.33333 z m 417.33335,-18.66667 c 0,-1.77777 0.88889,-2.66667 2.66666,-2.66667 1.77778,0 2.66667,0.8889 2.66667,2.66667 0,1.77777 -0.88889,2.66667 -2.66667,2.66667 -1.77777,0 -2.66666,-0.8889 -2.66666,-2.66667 z m 0,-18 c 0,-3.77777 0.50793,-4.66667 2.66666,-4.66667 2.15874,0 2.66667,0.8889 2.66667,4.66667 0,3.77777 -0.50793,4.66667 -2.66667,4.66667 -2.15873,0 -2.66666,-0.8889 -2.66666,-4.66667 z m 0,-21.33333 c 0,-3.77778 0.50793,-4.66667 2.66666,-4.66667 2.15874,0 2.66667,0.88889 2.66667,4.66667 0,3.77777 -0.50793,4.66666 -2.66667,4.66666 -2.15873,0 -2.66666,-0.88889 -2.66666,-4.66666 z m 0,-21.33334 c 0,-3.77777 0.50793,-4.66666 2.66666,-4.66666 2.15874,0 2.66667,0.88889 2.66667,4.66666 0,3.77778 -0.50793,4.66667 -2.66667,4.66667 -2.15873,0 -2.66666,-0.88889 -2.66666,-4.66667 z m -146.33334,-13.72508 -9.66667,-0.39174 -0.1236,-8.27492 c -0.20006,-13.38962 0.28068,-20.07699 1.62378,-22.58655 1.08741,-2.03196 3.27158,-2.35504 15.9211,-2.35504 h 14.6608 l -0.37437,16.33333 -0.37437,16.33334 -6,0.66666 c -3.3,0.36667 -10.35,0.49039 -15.66667,0.27492 z m 146.33334,-6.27492 c 0,-3.77777 0.50793,-4.66666 2.66666,-4.66666 2.15874,0 2.66667,0.88889 2.66667,4.66666 0,3.77778 -0.50793,4.66667 -2.66667,4.66667 -2.15873,0 -2.66666,-0.88889 -2.66666,-4.66667 z m 109.33333,-86.66667 c 0,-3.77777 0.50794,-4.66666 2.66667,-4.66666 2.15873,0 2.66667,0.88889 2.66667,4.66666 0,3.77778 -0.50794,4.66667 -2.66667,4.66667 -2.15873,0 -2.66667,-0.88889 -2.66667,-4.66667 z m -106.06804,-18.3235 -3.65495,-4.34316 54.8615,-0.34812 54.86149,-0.34814 v -3.9852 c 0,-3.09632 0.59479,-3.98521 2.66667,-3.98521 2.07041,0 2.66667,0.88889 2.66667,3.97543 v 3.97542 l 31,0.35791 31,0.35791 v 4 4 l -84.87322,0.34316 -84.8732,0.34316 z m -3.26529,-23.00983 c 0,-3.77777 0.50793,-4.66667 2.66666,-4.66667 2.15874,0 2.66667,0.8889 2.66667,4.66667 0,3.77777 -0.50793,4.66667 -2.66667,4.66667 -2.15873,0 -2.66666,-0.8889 -2.66666,-4.66667 z m 109.33333,-5.33333 c 0,-3.77778 0.50794,-4.66667 2.66667,-4.66667 2.15873,0 2.66667,0.88889 2.66667,4.66667 0,3.77777 -0.50794,4.66666 -2.66667,4.66666 -2.15873,0 -2.66667,-0.88889 -2.66667,-4.66666 z m -108.44444,-10.8889 c -0.48889,-0.48888 -0.88889,-2.88888 -0.88889,-5.33333 0,-3.55555 0.53333,-4.44444 2.66666,-4.44444 2.22223,0 2.66667,0.88889 2.66667,5.33333 0,5.02778 -1.93056,6.95834 -4.44444,4.44444 z m 108.44444,-10.44444 c 0,-3.77777 0.50794,-4.66666 2.66667,-4.66666 2.15873,0 2.66667,0.88889 2.66667,4.66666 0,3.77778 -0.50794,4.66667 -2.66667,4.66667 -2.15873,0 -2.66667,-0.88889 -2.66667,-4.66667 z M 736.00002,336.66667 c 0,-3.77777 0.50793,-4.66666 2.66666,-4.66666 2.15874,0 2.66667,0.88889 2.66667,4.66666 0,3.77778 -0.50793,4.66667 -2.66667,4.66667 -2.15873,0 -2.66666,-0.88889 -2.66666,-4.66667 z m 109.33333,-6.66666 c 0,-3.77778 0.50794,-4.66667 2.66667,-4.66667 2.15873,0 2.66667,0.88889 2.66667,4.66667 0,3.77777 -0.50794,4.66666 -2.66667,4.66666 -2.15873,0 -2.66667,-0.88889 -2.66667,-4.66666 z M 736.00002,315.33334 c 0,-3.77777 0.50793,-4.66667 2.66666,-4.66667 2.15874,0 2.66667,0.8889 2.66667,4.66667 0,3.77777 -0.50793,4.66667 -2.66667,4.66667 -2.15873,0 -2.66666,-0.8889 -2.66666,-4.66667 z m 109.33333,-6.66667 c 0,-3.77777 0.50794,-4.66666 2.66667,-4.66666 2.15873,0 2.66667,0.88889 2.66667,4.66666 0,3.77778 -0.50794,4.66667 -2.66667,4.66667 -2.15873,0 -2.66667,-0.88889 -2.66667,-4.66667 z M 736.00002,294.00001 c 0,-3.77778 0.50793,-4.66667 2.66666,-4.66667 2.15874,0 2.66667,0.88889 2.66667,4.66667 0,3.77777 -0.50793,4.66666 -2.66667,4.66666 -2.15873,0 -2.66666,-0.88889 -2.66666,-4.66666 z m 109.33333,-6.66667 c 0,-3.77777 0.50794,-4.66667 2.66667,-4.66667 2.15873,0 2.66667,0.8889 2.66667,4.66667 0,3.77777 -0.50794,4.66667 -2.66667,4.66667 -2.15873,0 -2.66667,-0.8889 -2.66667,-4.66667 z m -497.33334,-4 c 0,-3.77777 0.50793,-4.66667 2.66667,-4.66667 2.15873,0 2.66666,0.8889 2.66666,4.66667 0,3.77777 -0.50793,4.66667 -2.66666,4.66667 -2.15874,0 -2.66667,-0.8889 -2.66667,-4.66667 z m 388.00001,-10.22259 c 0,-4.33309 0.42793,-5.22521 2.33333,-4.86425 1.51119,0.28627 2.47597,1.90363 2.73815,4.59023 0.31741,3.25253 -0.1864,4.30281 -2.33334,4.86425 -2.42324,0.63369 -2.73814,0.10577 -2.73814,-4.59023 z M 348.8889,265.77778 c -0.48889,-0.48888 -0.88889,-2.58888 -0.88889,-4.66667 0,-3.42857 0.43137,-3.77777 4.66667,-3.77777 3.25925,0 4.66666,0.60317 4.66666,2 0,1.1 -0.83002,2 -1.84449,2 -1.01447,0 -2.15829,1.2 -2.54184,2.66667 -0.70119,2.68132 -2.4072,3.42869 -4.05811,1.77777 z m 103.47467,-5.42019 c -0.92352,-2.40666 -0.48736,-2.69133 4.94951,-3.2303 3.47929,-0.34491 4.75234,0.0868 5.06814,1.71889 0.55284,2.85703 -8.95105,4.29093 -10.01765,1.51141 z m 62.96219,1.19039 c -2.16009,-2.16011 -0.20649,-4.21464 4.00759,-4.21464 5.88704,0 6.41617,3.44056 0.65908,4.28552 -2.20418,0.32351 -4.30418,0.29161 -4.66667,-0.0709 z m -312.42352,-2.28507 c 0.2371,-1.13873 0.8811,-2.03873 1.4311,-2 0.55,0.0387 2.5,0.0704 4.33333,0.0704 2.07408,0 3.33334,0.75556 3.33334,2 0,1.40464 -1.41827,2 -4.76443,2 -3.60328,0 -4.65938,-0.50458 -4.33334,-2.07042 z m 21.09777,0.0704 c 0,-1.39683 1.40741,-2 4.66666,-2 3.25926,0 4.66667,0.60317 4.66667,2 0,1.39683 -1.40741,2 -4.66667,2 -3.25925,0 -4.66666,-0.60317 -4.66666,-2 z m 20.947,-0.66667 c 1.25493,-4.79886 9.71966,-2.96212 9.71966,2.10906 0,0.30668 -2.34382,0.55761 -5.2085,0.55761 -4.55207,0 -5.12062,-0.33608 -4.51116,-2.66667 z m 20.64016,0.33334 c 0.30777,-1.59815 1.69817,-2.33334 4.41284,-2.33334 2.71466,0 4.10506,0.73519 4.41284,2.33334 0.36162,1.8778 -0.49988,2.33333 -4.41284,2.33333 -3.91296,0 -4.77447,-0.45553 -4.41284,-2.33333 z m 21.0795,-0.33334 c 0,-2.07408 0.8889,-2.66666 4,-2.66666 3.11111,0 4,0.59258 4,2.66666 0,2.07408 -0.88889,2.66667 -4,2.66667 -3.1111,0 -4,-0.59259 -4,-2.66667 z m 20,0.80932 c 0,-3.85826 8.34987,-4.1795 9.09776,-0.35001 0.33648,1.72287 -0.61464,2.20736 -4.33333,2.20736 -3.18352,0 -4.76443,-0.61629 -4.76443,-1.85735 z m 20.85116,-0.14265 c 0.42808,-1.11555 2.41022,-2 4.48218,-2 2.07196,0 4.05409,0.88445 4.48217,2 0.60211,1.56908 -0.36361,2 -4.48217,2 -4.11856,0 -5.08428,-0.43092 -4.48218,-2 z m 41.81551,0 c 0,-1.39683 1.40742,-2 4.66667,-2 3.25925,0 4.66667,0.60317 4.66667,2 0,1.39683 -1.40742,2 -4.66667,2 -3.25925,0 -4.66667,-0.60317 -4.66667,-2 z m 21.33334,-0.46667 c 0,-3.42456 8.41812,-3.30093 9.0795,0.13334 0.36027,1.87073 -0.49522,2.33333 -4.31508,2.33333 -3.74677,0 -4.76442,-0.52687 -4.76442,-2.46667 z m 20,0.46667 c 0,-1.39683 1.40741,-2 4.66666,-2 3.25926,0 4.66667,0.60317 4.66667,2 0,1.39683 -1.40741,2 -4.66667,2 -3.25925,0 -4.66666,-0.60317 -4.66666,-2 z m 21.33333,0 c 0,-1.39683 1.40741,-2 4.66667,-2 3.25925,0 4.66666,0.60317 4.66666,2 0,1.39683 -1.40741,2 -4.66666,2 -3.25926,0 -4.66667,-0.60317 -4.66667,-2 z m 41.33333,0 c 0,-1.39683 1.40742,-2 4.66667,-2 3.25926,0 4.66667,0.60317 4.66667,2 0,1.39683 -1.40741,2 -4.66667,2 -3.25925,0 -4.66667,-0.60317 -4.66667,-2 z m 21.33334,0 c 0,-1.39683 1.40741,-2 4.66667,-2 3.25925,0 4.66666,0.60317 4.66666,2 0,1.39683 -1.40741,2 -4.66666,2 -3.25926,0 -4.66667,-0.60317 -4.66667,-2 z m 41.33333,0 c 0,-1.39683 1.40742,-2 4.66667,-2 3.25925,0 4.66667,0.60317 4.66667,2 0,1.39683 -1.40742,2 -4.66667,2 -3.25925,0 -4.66667,-0.60317 -4.66667,-2 z m 21.33334,0 c 0,-1.39683 1.40741,-2 4.66666,-2 3.25926,0 4.66667,0.60317 4.66667,2 0,1.39683 -1.40741,2 -4.66667,2 -3.25925,0 -4.66666,-0.60317 -4.66666,-2 z m 20,0 c 0,-1.42995 1.45678,-2 5.1111,-2 3.65432,0 5.11112,0.57005 5.11112,2 0,1.42995 -1.4568,2 -5.11112,2 -3.65432,0 -5.1111,-0.57005 -5.1111,-2 z m 21.33333,0 c 0,-1.39683 1.40741,-2 4.66667,-2 3.25925,0 4.66666,0.60317 4.66666,2 0,1.39683 -1.40741,2 -4.66666,2 -3.25926,0 -4.66667,-0.60317 -4.66667,-2 z m 21.33334,0 c 0,-1.39683 1.40741,-2 4.66666,-2 3.25926,0 4.66667,0.60317 4.66667,2 0,1.39683 -1.40741,2 -4.66667,2 -3.25925,0 -4.66666,-0.60317 -4.66666,-2 z m 20.23557,-0.0704 c 0.23709,-1.13873 0.88109,-2.03873 1.43109,-2 0.55,0.0387 2.5,0.0704 4.33334,0.0704 2.07408,0 3.33333,0.75556 3.33333,2 0,1.40464 -1.41827,2 -4.76443,2 -3.60328,0 -4.65937,-0.50459 -4.33333,-2.07043 z m 21.09776,-0.59627 c 0,-2.15873 0.88889,-2.66666 4.66667,-2.66666 3.77777,0 4.66666,0.50793 4.66666,2.66666 0,2.15874 -0.88889,2.66667 -4.66666,2.66667 -3.77778,0 -4.66667,-0.50793 -4.66667,-2.66667 z m 21.33333,0 c 0,-2.07408 0.8889,-2.66666 4,-2.66666 3.11111,0 4,0.59258 4,2.66666 0,2.07408 -0.88889,2.66667 -4,2.66667 -3.1111,0 -4,-0.59259 -4,-2.66667 z m 20.2465,0.33334 c 0.2911,-1.53674 1.91769,-2.47598 4.76442,-2.75115 3.61276,-0.34921 4.32242,0.0339 4.32242,2.33333 0,2.26603 -0.84012,2.75115 -4.76443,2.75115 -3.81705,0 -4.67655,-0.46397 -4.32241,-2.33333 z m 21.08684,-0.33334 c 0,-2.07408 0.88889,-2.66666 4,-2.66666 3.1111,0 4,0.59258 4,2.66666 0,2.07408 -0.8889,2.66667 -4,2.66667 -3.11111,0 -4,-0.59259 -4,-2.66667 z"
         id="path1067" />
      <path
         style="fill:#318abe;stroke-width:1.33333"
         d="m 321.33334,724.00002 c 0,-2.07408 0.88889,-2.66667 4,-2.66667 3.11111,0 4,0.59259 4,2.66667 0,2.07408 -0.88889,2.66666 -4,2.66666 -3.11111,0 -4,-0.59258 -4,-2.66666 z m 19.19068,0.55761 c 0.44513,-1.15997 0.80932,-2.35997 0.80932,-2.66667 0,-0.30668 1.8,-0.55761 4,-0.55761 3.11111,0 4,0.59259 4,2.66667 0,2.1738 -0.88889,2.66666 -4.80932,2.66666 -3.83768,0 -4.64581,-0.42609 -4,-2.10905 z m 20.80932,-0.55761 c 0,-2.15874 0.8889,-2.66667 4.66667,-2.66667 3.77777,0 4.66667,0.50793 4.66667,2.66667 0,2.15873 -0.8889,2.66666 -4.66667,2.66666 -3.77777,0 -4.66667,-0.50793 -4.66667,-2.66666 z m 21.33334,0 c 0,-2.15874 0.88889,-2.66667 4.66666,-2.66667 3.77778,0 4.66667,0.50793 4.66667,2.66667 0,2.15873 -0.88889,2.66666 -4.66667,2.66666 -3.77777,0 -4.66666,-0.50793 -4.66666,-2.66666 z m 21.33333,0 c 0,-2.07408 0.88889,-2.66667 4,-2.66667 3.11111,0 4,0.59259 4,2.66667 0,2.07408 -0.88889,2.66666 -4,2.66666 -3.11111,0 -4,-0.59258 -4,-2.66666 z m 20,0 c 0,-2.15874 0.88889,-2.66667 4.66667,-2.66667 3.77777,0 4.66666,0.50793 4.66666,2.66667 0,2.15873 -0.88889,2.66666 -4.66666,2.66666 -3.77778,0 -4.66667,-0.50793 -4.66667,-2.66666 z m 21.33333,0 c 0,-2.07408 0.8889,-2.66667 4,-2.66667 3.11111,0 4,0.59259 4,2.66667 0,2.07408 -0.88889,2.66666 -4,2.66666 -3.1111,0 -4,-0.59258 -4,-2.66666 z m 20.2465,0.33333 c 0.2911,-1.53673 1.91769,-2.47597 4.76442,-2.75115 3.61276,-0.34921 4.32242,0.0339 4.32242,2.33334 0,2.26602 -0.84012,2.75114 -4.76443,2.75114 -3.81705,0 -4.67655,-0.46397 -4.32241,-2.33333 z m 21.08684,-0.33333 c 0,-2.15874 0.88889,-2.66667 4.66667,-2.66667 3.77777,0 4.66666,0.50793 4.66666,2.66667 0,2.15873 -0.88889,2.66666 -4.66666,2.66666 -3.77778,0 -4.66667,-0.50793 -4.66667,-2.66666 z m 20.66667,1.33333 c -1.40398,-2.27167 0.64642,-4 4.74536,-4 3.03241,0 3.9213,0.60448 3.9213,2.66667 0,2.06218 -0.88889,2.66666 -3.9213,2.66666 -2.15672,0 -4.29214,-0.6 -4.74536,-1.33333 z m 20.66666,-1.33333 c 0,-2.15874 0.8889,-2.66667 4.66667,-2.66667 3.77777,0 4.66667,0.50793 4.66667,2.66667 0,2.15873 -0.8889,2.66666 -4.66667,2.66666 -3.77777,0 -4.66667,-0.50793 -4.66667,-2.66666 z m 21.33334,0 c 0,-2.15874 0.88889,-2.66667 4.66666,-2.66667 3.77778,0 4.66667,0.50793 4.66667,2.66667 0,2.15873 -0.88889,2.66666 -4.66667,2.66666 -3.77777,0 -4.66666,-0.50793 -4.66666,-2.66666 z m 21.33333,0 c 0,-2.07408 0.88889,-2.66667 4,-2.66667 3.11111,0 4,0.59259 4,2.66667 0,2.07408 -0.88889,2.66666 -4,2.66666 -3.11111,0 -4,-0.59258 -4,-2.66666 z m 20,0 c 0,-2.15874 0.88889,-2.66667 4.66667,-2.66667 3.77777,0 4.66666,0.50793 4.66666,2.66667 0,2.15873 -0.88889,2.66666 -4.66666,2.66666 -3.77778,0 -4.66667,-0.50793 -4.66667,-2.66666 z M 318.91951,709.67778 c 0.28922,-3.4866 1.11647,-5.12207 2.74716,-5.43111 1.91271,-0.36247 2.33334,0.53688 2.33334,4.98892 0,4.59524 -0.42279,5.43109 -2.74716,5.43109 -2.35824,0 -2.68856,-0.70626 -2.33334,-4.9889 z M 79.333335,704.88219 C 60.661447,698.69486 49.315752,683.08188 49.34636,663.61667 c 0.02536,-16.12331 0.4194,-16.63767 62.3591,-81.39755 29.89346,-31.25453 37.43176,-38.43287 42.32105,-40.30009 7.25983,-2.77256 13.83499,-1.94924 20.49944,2.56684 l 4.80739,3.25765 8.18764,-8.02217 8.18765,-8.02218 -6.41677,-10.56481 c -7.75362,-12.76584 -13.40036,-26.01997 -17.53724,-41.16375 -2.7556,-10.08733 -3.07878,-14.10223 -3.0027,-37.30393 0.0785,-23.9589 0.36915,-27.04672 3.70146,-39.33334 6.83885,-25.21569 18.95376,-46.50085 37.40748,-65.72268 18.3484,-19.11213 39.21549,-31.08153 67.37412,-38.64593 11.10549,-2.98334 15.45181,-3.4305 33.43169,-3.4396 16.74562,-0.008 22.88687,0.53838 32.3687,2.88228 44.64704,11.03669 79.75596,39.10089 98.87496,79.03539 14.58796,30.47038 18.19053,59.95164 11.79917,96.55721 -2.48357,14.2243 -6.45477,25.35742 -14.38377,40.32432 -18.05968,34.08983 -51.40233,59.97596 -91.05131,70.68923 -11.51747,3.11205 -15.43457,3.50301 -35.60775,3.55393 -20.7182,0.0523 -23.81282,-0.25836 -36,-3.61413 -16.02581,-4.41273 -36.66701,-14.41208 -49.09529,-23.78353 l -9.09528,-6.85826 -5.34972,5.17756 c -2.94235,2.84766 -6.54116,6.82872 -7.99736,8.84682 -2.422,3.35657 -2.46666,3.85024 -0.52391,5.79298 6.69682,6.69682 8.52099,19.73362 3.80372,27.18403 -1.4119,2.22996 -22.93149,25.05608 -47.82131,50.72471 -49.93665,51.49921 -52.01616,53.16413 -67.580352,54.10672 -4.769214,0.28883 -10.624159,-0.25163 -13.673833,-1.2622 z M 326.00001,554.60476 c 43.70152,-5.00157 80.66041,-36.62785 92.95049,-79.53918 2.4768,-8.6478 2.98432,-13.76676 3.01392,-30.3989 0.0443,-24.85266 -2.32489,-36.01438 -11.43966,-53.89627 -12.02039,-23.58224 -26.43823,-37.90564 -49.85808,-49.5315 -19.64225,-9.75061 -31.57733,-12.34944 -53.21106,-11.58658 -14.11957,0.49788 -19.49417,1.28577 -28.12228,4.12256 -21.13219,6.94793 -43.76511,22.89119 -55.83205,39.32967 -13.88275,18.91208 -22.15323,44.52774 -22.26943,68.97368 -0.21275,44.7634 23.75908,83.53579 62.95584,101.82567 22.51097,10.50401 38.83693,13.33033 61.81231,10.70085 z m -90.47803,-47.17065 c -1.29616,-1.97819 -2.12295,-4.29786 -1.83728,-5.15483 0.28565,-0.85697 1.57987,0.0604 2.87603,2.03857 1.29616,1.97819 2.12293,4.29787 1.83728,5.15484 -0.28567,0.85698 -1.57988,-0.0604 -2.87603,-2.03858 z m 112.47803,-80.10077 c 0,-3.77777 0.50793,-4.66666 2.66667,-4.66666 2.15873,0 2.66666,0.88889 2.66666,4.66666 0,3.77778 -0.50793,4.66667 -2.66666,4.66667 -2.15874,0 -2.66667,-0.88889 -2.66667,-4.66667 z m 0,-24.66666 c 0,-2.66667 0.66667,-4 2,-4 1.33333,0 2,1.33333 2,4 0,2.66666 -0.66667,4 -2,4 -1.33333,0 -2,-1.33334 -2,-4 z m -124,-0.52402 c 0,-1.02154 0.9,-2.2027 2,-2.62482 1.36038,-0.52203 2,0.072 2,1.85734 0,1.4443 -0.89952,2.62483 -2,2.62483 -1.1,0 -2,-0.83581 -2,-1.85735 z m 124,-28.14265 c 0,-3.25925 0.60317,-4.66667 2,-4.66667 1.39683,0 2,1.40742 2,4.66667 0,3.25925 -0.60317,4.66667 -2,4.66667 -1.39683,0 -2,-1.40742 -2,-4.66667 z m 0,-19.33333 c 0,-2.66667 0.66667,-4 2,-4 1.1,0 2.00819,0.45 2.0182,1 0.0107,0.55 0.38,2.35 0.82219,4 0.64837,2.41944 0.25781,3 -2.01822,3 -2.24685,0 -2.82217,-0.81542 -2.82217,-4 z m -29.33334,334 c 0,-3.77777 0.50794,-4.66666 2.66667,-4.66666 2.15873,0 2.66667,0.88889 2.66667,4.66666 0,3.77778 -0.50794,4.66667 -2.66667,4.66667 -2.15873,0 -2.66667,-0.88889 -2.66667,-4.66667 z m 419.00001,-5.5497 c -0.91666,-0.36988 -1.66666,-2.42252 -1.66666,-4.5614 0,-3 0.60952,-3.8889 2.66666,-3.8889 2.15874,0 2.66667,0.8889 2.66667,4.66667 0,4.62565 -0.44412,5.08395 -3.66667,3.78363 z M 318.66667,668.00002 c 0,-4.44444 0.44444,-5.33334 2.66667,-5.33334 2.22223,0 2.66667,0.8889 2.66667,5.33334 0,4.44444 -0.44444,5.33333 -2.66667,5.33333 -2.22223,0 -2.66667,-0.88889 -2.66667,-5.33333 z m 417.5822,-9.66667 c 0.26779,-2.77727 1.136,-4.33333 2.41781,-4.33333 1.28182,0 2.15003,1.55606 2.41782,4.33333 0.35302,3.66148 -0.0219,4.33333 -2.41782,4.33333 -2.39597,0 -2.77084,-0.67185 -2.41781,-4.33333 z m -180.24886,-5 c 0,-2.15873 0.8889,-2.66667 4.66667,-2.66667 3.77777,0 4.66667,0.50794 4.66667,2.66667 0,2.15873 -0.8889,2.66667 -4.66667,2.66667 -3.77777,0 -4.66667,-0.50794 -4.66667,-2.66667 z m 21.33334,0 c 0,-2.15873 0.88889,-2.66667 4.66666,-2.66667 3.77778,0 4.66667,0.50794 4.66667,2.66667 0,2.15873 -0.88889,2.66667 -4.66667,2.66667 -3.77777,0 -4.66666,-0.50794 -4.66666,-2.66667 z m 21.33333,0 c 0,-2.15873 0.88889,-2.66667 4.66667,-2.66667 3.77777,0 4.66666,0.50794 4.66666,2.66667 0,2.15873 -0.88889,2.66667 -4.66666,2.66667 -3.77778,0 -4.66667,-0.50794 -4.66667,-2.66667 z m 20.71311,1.40848 c -1.52405,-2.46597 0.63328,-4.07515 5.46335,-4.07515 3.7421,0 4.59673,0.4699 4.24372,2.33334 -0.5029,2.65474 -8.28034,4.0503 -9.70707,1.74181 z m 20.62023,-1.40848 c 0,-2.15873 0.88889,-2.66667 4.66666,-2.66667 3.77778,0 4.66667,0.50794 4.66667,2.66667 0,2.15873 -0.88889,2.66667 -4.66667,2.66667 -3.77777,0 -4.66666,-0.50794 -4.66666,-2.66667 z m 21.33333,0 c 0,-2.15873 0.88889,-2.66667 4.66667,-2.66667 3.77777,0 4.66666,0.50794 4.66666,2.66667 0,2.15873 -0.88889,2.66667 -4.66666,2.66667 -3.77778,0 -4.66667,-0.50794 -4.66667,-2.66667 z m 21.33333,0 c 0,-2.15873 0.8889,-2.66667 4.66667,-2.66667 3.77777,0 4.66667,0.50794 4.66667,2.66667 0,2.15873 -0.8889,2.66667 -4.66667,2.66667 -3.77777,0 -4.66667,-0.50794 -4.66667,-2.66667 z m 21.33334,0 c 0,-2.15873 0.88889,-2.66667 4.66666,-2.66667 3.77778,0 4.66667,0.50794 4.66667,2.66667 0,2.15873 -0.88889,2.66667 -4.66667,2.66667 -3.77777,0 -4.66666,-0.50794 -4.66666,-2.66667 z m 21.33333,0.0845 c 0,-2.26608 0.84012,-2.7512 4.76443,-2.7512 3.81705,0 4.67654,0.46398 4.32241,2.33334 -0.29111,1.53673 -1.91769,2.47597 -4.76443,2.75114 -3.61276,0.34922 -4.32241,-0.0339 -4.32241,-2.33333 z m -406.66668,-6.08453 c 0,-3.77777 0.50794,-4.66667 2.66667,-4.66667 2.15873,0 2.66667,0.8889 2.66667,4.66667 0,3.77777 -0.50794,4.66667 -2.66667,4.66667 -2.15873,0 -2.66667,-0.8889 -2.66667,-4.66667 z m 417.33335,-10.66667 c 0,-3.77777 0.50793,-4.66666 2.66666,-4.66666 2.15874,0 2.66667,0.88889 2.66667,4.66666 0,3.77778 -0.50793,4.66667 -2.66667,4.66667 -2.15873,0 -2.66666,-0.88889 -2.66666,-4.66667 z M 318.66667,626.00002 c 0,-3.77778 0.50794,-4.66667 2.66667,-4.66667 2.15873,0 2.66667,0.88889 2.66667,4.66667 0,3.77777 -0.50794,4.66666 -2.66667,4.66666 -2.15873,0 -2.66667,-0.88889 -2.66667,-4.66666 z m 417.33335,-10.66667 c 0,-3.77778 0.50793,-4.66667 2.66666,-4.66667 2.15874,0 2.66667,0.88889 2.66667,4.66667 0,3.77777 -0.50793,4.66667 -2.66667,4.66667 -2.15873,0 -2.66666,-0.8889 -2.66666,-4.66667 z m -417.33335,-10 c 0,-4.44444 0.44444,-5.33334 2.66667,-5.33334 2.22223,0 2.66667,0.8889 2.66667,5.33334 0,4.44444 -0.44444,5.33333 -2.66667,5.33333 -2.22223,0 -2.66667,-0.88889 -2.66667,-5.33333 z m 419.00001,-16.88304 c -2.6754,-1.07955 -1.91797,-4.4503 1,-4.4503 1.77778,0 2.66667,0.8889 2.66667,2.66667 0,2.6948 -0.63864,3.00547 -3.66667,1.78363 z m -1.66666,-19.78363 c 0,-3.77777 0.50793,-4.66667 2.66666,-4.66667 2.15874,0 2.66667,0.8889 2.66667,4.66667 0,3.77777 -0.50793,4.66667 -2.66667,4.66667 -2.15873,0 -2.66666,-0.8889 -2.66666,-4.66667 z m 0,-21.33333 c 0,-3.77778 0.50793,-4.66667 2.66666,-4.66667 2.15874,0 2.66667,0.88889 2.66667,4.66667 0,3.77777 -0.50793,4.66666 -2.66667,4.66666 -2.15873,0 -2.66666,-0.88889 -2.66666,-4.66666 z m 0,-21.33334 c 0,-3.77777 0.50793,-4.66666 2.66666,-4.66666 2.15874,0 2.66667,0.88889 2.66667,4.66666 0,3.77778 -0.50793,4.66667 -2.66667,4.66667 -2.15873,0 -2.66666,-0.88889 -2.66666,-4.66667 z m 0,-20 c 0,-3.77777 0.50793,-4.66666 2.66666,-4.66666 2.15874,0 2.66667,0.88889 2.66667,4.66666 0,3.77778 -0.50793,4.66667 -2.66667,4.66667 -2.15873,0 -2.66666,-0.88889 -2.66666,-4.66667 z m 109.33333,-86.66667 c 0,-3.77777 0.50794,-4.66666 2.66667,-4.66666 2.15873,0 2.66667,0.88889 2.66667,4.66666 0,3.77778 -0.50794,4.66667 -2.66667,4.66667 -2.15873,0 -2.66667,-0.88889 -2.66667,-4.66667 z m 0.8889,-24.22222 c -0.4889,-0.48888 -0.8889,-2.28888 -0.8889,-4 0,-2.22222 0.76191,-3.11111 2.66667,-3.11111 2.07408,0 2.66667,0.88889 2.66667,4 0,3.76152 -2.23179,5.32377 -4.44444,3.11111 z M 736.00002,378.00001 c 0,-3.77777 0.50793,-4.66667 2.66666,-4.66667 2.15874,0 2.66667,0.8889 2.66667,4.66667 0,3.77777 -0.50793,4.66667 -2.66667,4.66667 -2.15873,0 -2.66666,-0.8889 -2.66666,-4.66667 z m 109.33333,-5.33333 c 0,-3.77778 0.50794,-4.66667 2.66667,-4.66667 2.15873,0 2.66667,0.88889 2.66667,4.66667 0,3.77777 -0.50794,4.66666 -2.66667,4.66666 -2.15873,0 -2.66667,-0.88889 -2.66667,-4.66666 z m -108.44444,-10.8889 c -0.48889,-0.48888 -0.88889,-2.88888 -0.88889,-5.33333 0,-3.55555 0.53333,-4.44444 2.66666,-4.44444 2.22223,0 2.66667,0.88889 2.66667,5.33333 0,5.02778 -1.93056,6.95834 -4.44444,4.44444 z m 108.44444,-10.44444 c 0,-3.77777 0.50794,-4.66666 2.66667,-4.66666 2.15873,0 2.66667,0.88889 2.66667,4.66666 0,3.77778 -0.50794,4.66667 -2.66667,4.66667 -2.15873,0 -2.66667,-0.88889 -2.66667,-4.66667 z M 736.00002,336.66667 c 0,-3.77777 0.50793,-4.66666 2.66666,-4.66666 2.15874,0 2.66667,0.88889 2.66667,4.66666 0,3.77778 -0.50793,4.66667 -2.66667,4.66667 -2.15873,0 -2.66666,-0.88889 -2.66666,-4.66667 z m 109.33333,-6.66666 c 0,-3.77778 0.50794,-4.66667 2.66667,-4.66667 2.15873,0 2.66667,0.88889 2.66667,4.66667 0,3.77777 -0.50794,4.66666 -2.66667,4.66666 -2.15873,0 -2.66667,-0.88889 -2.66667,-4.66666 z M 736.00002,315.33334 c 0,-3.77777 0.50793,-4.66667 2.66666,-4.66667 2.15874,0 2.66667,0.8889 2.66667,4.66667 0,3.77777 -0.50793,4.66667 -2.66667,4.66667 -2.15873,0 -2.66666,-0.8889 -2.66666,-4.66667 z m 109.33333,-6.66667 c 0,-3.77777 0.50794,-4.66666 2.66667,-4.66666 2.15873,0 2.66667,0.88889 2.66667,4.66666 0,3.77778 -0.50794,4.66667 -2.66667,4.66667 -2.15873,0 -2.66667,-0.88889 -2.66667,-4.66667 z M 736.00002,294.00001 c 0,-3.77778 0.50793,-4.66667 2.66666,-4.66667 2.15874,0 2.66667,0.88889 2.66667,4.66667 0,3.77777 -0.50793,4.66666 -2.66667,4.66666 -2.15873,0 -2.66666,-0.88889 -2.66666,-4.66666 z m 109.33333,-6.66667 c 0,-3.77777 0.50794,-4.66667 2.66667,-4.66667 2.15873,0 2.66667,0.8889 2.66667,4.66667 0,3.77777 -0.50794,4.66667 -2.66667,4.66667 -2.15873,0 -2.66667,-0.8889 -2.66667,-4.66667 z m -497.33334,-4 c 0,-3.77777 0.50793,-4.66667 2.66667,-4.66667 2.15873,0 2.66666,0.8889 2.66666,4.66667 0,3.77777 -0.50793,4.66667 -2.66666,4.66667 -2.15874,0 -2.66667,-0.8889 -2.66667,-4.66667 z m 388.00001,-10.22259 c 0,-4.33309 0.42793,-5.22521 2.33333,-4.86425 1.51119,0.28627 2.47597,1.90363 2.73815,4.59023 0.31741,3.25253 -0.1864,4.30281 -2.33334,4.86425 -2.42324,0.63369 -2.73814,0.10577 -2.73814,-4.59023 z M 348.8889,265.77778 c -0.48889,-0.48888 -0.88889,-2.58888 -0.88889,-4.66667 0,-3.42857 0.43137,-3.77777 4.66667,-3.77777 3.25925,0 4.66666,0.60317 4.66666,2 0,1.1 -0.83002,2 -1.84449,2 -1.01447,0 -2.15829,1.2 -2.54184,2.66667 -0.70119,2.68132 -2.4072,3.42869 -4.05811,1.77777 z m 103.47467,-5.42019 c -0.92352,-2.40666 -0.48736,-2.69133 4.94951,-3.2303 3.47929,-0.34491 4.75234,0.0868 5.06814,1.71889 0.55284,2.85703 -8.95105,4.29093 -10.01765,1.51141 z m 62.96219,1.19039 c -2.16009,-2.16011 -0.20649,-4.21464 4.00759,-4.21464 5.88704,0 6.41617,3.44056 0.65908,4.28552 -2.20418,0.32351 -4.30418,0.29161 -4.66667,-0.0709 z m -312.42352,-2.28507 c 0.2371,-1.13873 0.8811,-2.03873 1.4311,-2 0.55,0.0387 2.5,0.0704 4.33333,0.0704 2.07408,0 3.33334,0.75556 3.33334,2 0,1.40464 -1.41827,2 -4.76443,2 -3.60328,0 -4.65938,-0.50458 -4.33334,-2.07042 z m 21.09777,0.0704 c 0,-1.39683 1.40741,-2 4.66666,-2 3.25926,0 4.66667,0.60317 4.66667,2 0,1.39683 -1.40741,2 -4.66667,2 -3.25925,0 -4.66666,-0.60317 -4.66666,-2 z m 20.947,-0.66667 c 1.25493,-4.79886 9.71966,-2.96212 9.71966,2.10906 0,0.30668 -2.34382,0.55761 -5.2085,0.55761 -4.55207,0 -5.12062,-0.33608 -4.51116,-2.66667 z m 20.64016,0.33334 c 0.30777,-1.59815 1.69817,-2.33334 4.41284,-2.33334 2.71466,0 4.10506,0.73519 4.41284,2.33334 0.36162,1.8778 -0.49988,2.33333 -4.41284,2.33333 -3.91296,0 -4.77447,-0.45553 -4.41284,-2.33333 z m 21.0795,-0.33334 c 0,-2.07408 0.8889,-2.66666 4,-2.66666 3.11111,0 4,0.59258 4,2.66666 0,2.07408 -0.88889,2.66667 -4,2.66667 -3.1111,0 -4,-0.59259 -4,-2.66667 z m 20,0.80932 c 0,-3.85826 8.34987,-4.1795 9.09776,-0.35001 0.33648,1.72287 -0.61464,2.20736 -4.33333,2.20736 -3.18352,0 -4.76443,-0.61629 -4.76443,-1.85735 z m 20.85116,-0.14265 c 0.42808,-1.11555 2.41022,-2 4.48218,-2 2.07196,0 4.05409,0.88445 4.48217,2 0.60211,1.56908 -0.36361,2 -4.48217,2 -4.11856,0 -5.08428,-0.43092 -4.48218,-2 z m 41.81551,0 c 0,-1.39683 1.40742,-2 4.66667,-2 3.25925,0 4.66667,0.60317 4.66667,2 0,1.39683 -1.40742,2 -4.66667,2 -3.25925,0 -4.66667,-0.60317 -4.66667,-2 z m 21.33334,-0.46667 c 0,-3.42456 8.41812,-3.30093 9.0795,0.13334 0.36027,1.87073 -0.49522,2.33333 -4.31508,2.33333 -3.74677,0 -4.76442,-0.52687 -4.76442,-2.46667 z m 20,0.46667 c 0,-1.39683 1.40741,-2 4.66666,-2 3.25926,0 4.66667,0.60317 4.66667,2 0,1.39683 -1.40741,2 -4.66667,2 -3.25925,0 -4.66666,-0.60317 -4.66666,-2 z m 21.33333,0 c 0,-1.39683 1.40741,-2 4.66667,-2 3.25925,0 4.66666,0.60317 4.66666,2 0,1.39683 -1.40741,2 -4.66666,2 -3.25926,0 -4.66667,-0.60317 -4.66667,-2 z m 41.33333,0 c 0,-1.39683 1.40742,-2 4.66667,-2 3.25926,0 4.66667,0.60317 4.66667,2 0,1.39683 -1.40741,2 -4.66667,2 -3.25925,0 -4.66667,-0.60317 -4.66667,-2 z m 21.33334,0 c 0,-1.39683 1.40741,-2 4.66667,-2 3.25925,0 4.66666,0.60317 4.66666,2 0,1.39683 -1.40741,2 -4.66666,2 -3.25926,0 -4.66667,-0.60317 -4.66667,-2 z m 41.33333,0 c 0,-1.39683 1.40742,-2 4.66667,-2 3.25925,0 4.66667,0.60317 4.66667,2 0,1.39683 -1.40742,2 -4.66667,2 -3.25925,0 -4.66667,-0.60317 -4.66667,-2 z m 21.33334,0 c 0,-1.39683 1.40741,-2 4.66666,-2 3.25926,0 4.66667,0.60317 4.66667,2 0,1.39683 -1.40741,2 -4.66667,2 -3.25925,0 -4.66666,-0.60317 -4.66666,-2 z m 20,0 c 0,-1.42995 1.45678,-2 5.1111,-2 3.65432,0 5.11112,0.57005 5.11112,2 0,1.42995 -1.4568,2 -5.11112,2 -3.65432,0 -5.1111,-0.57005 -5.1111,-2 z m 21.33333,0 c 0,-1.39683 1.40741,-2 4.66667,-2 3.25925,0 4.66666,0.60317 4.66666,2 0,1.39683 -1.40741,2 -4.66666,2 -3.25926,0 -4.66667,-0.60317 -4.66667,-2 z m 21.33334,0 c 0,-1.39683 1.40741,-2 4.66666,-2 3.25926,0 4.66667,0.60317 4.66667,2 0,1.39683 -1.40741,2 -4.66667,2 -3.25925,0 -4.66666,-0.60317 -4.66666,-2 z m 20.23557,-0.0704 c 0.23709,-1.13873 0.88109,-2.03873 1.43109,-2 0.55,0.0387 2.5,0.0704 4.33334,0.0704 2.07408,0 3.33333,0.75556 3.33333,2 0,1.40464 -1.41827,2 -4.76443,2 -3.60328,0 -4.65937,-0.50459 -4.33333,-2.07043 z m 21.09776,-0.59627 c 0,-2.15873 0.88889,-2.66666 4.66667,-2.66666 3.77777,0 4.66666,0.50793 4.66666,2.66666 0,2.15874 -0.88889,2.66667 -4.66666,2.66667 -3.77778,0 -4.66667,-0.50793 -4.66667,-2.66667 z m 21.33333,0 c 0,-2.07408 0.8889,-2.66666 4,-2.66666 3.11111,0 4,0.59258 4,2.66666 0,2.07408 -0.88889,2.66667 -4,2.66667 -3.1111,0 -4,-0.59259 -4,-2.66667 z m 20.2465,0.33334 c 0.2911,-1.53674 1.91769,-2.47598 4.76442,-2.75115 3.61276,-0.34921 4.32242,0.0339 4.32242,2.33333 0,2.26603 -0.84012,2.75115 -4.76443,2.75115 -3.81705,0 -4.67655,-0.46397 -4.32241,-2.33333 z m 21.08684,-0.33334 c 0,-2.07408 0.88889,-2.66666 4,-2.66666 3.1111,0 4,0.59258 4,2.66666 0,2.07408 -0.8889,2.66667 -4,2.66667 -3.11111,0 -4,-0.59259 -4,-2.66667 z"
         id="path1065" />
    </g>
  </g>
</svg>
